<?xml version="1.0" encoding="UTF-8"?>
<svg version="1.1" xmlns="http://www.w3.org/2000/svg" width="512" height="512">
<path d="M0 0 C13.11707178 7.58853415 19.49587907 20.55757326 23.5 34.6875 C23.89238891 36.32927444 24.27053731 37.97462169 24.625 39.625 C24.851875 40.594375 25.07875 41.56375 25.3125 42.5625 C25.82471853 47.58224157 25.68103675 52.58169205 25.625 57.625 C29.915 57.625 34.205 57.625 38.625 57.625 C38.7075 55.645 38.79 53.665 38.875 51.625 C40.21249074 33.69539438 45.70997066 15.87022582 59.625 3.625 C68.2723871 -2.28587219 76.32471835 -3.29911801 86.625 -2.375 C95.47288171 0.40148371 102.28120936 6.24372361 107.1875 14 C107.57172119 14.60505371 107.95594238 15.21010742 108.35180664 15.83349609 C115.9634234 28.34966254 119.11012172 43.07134853 118.625 57.625 C122.915 57.625 127.205 57.625 131.625 57.625 C131.563125 56.47 131.50125 55.315 131.4375 54.125 C131.51742573 37.12746113 137.19645035 19.34491119 148.625 6.625 C156.62164282 -0.82120469 164.83435704 -3.16129993 175.67578125 -2.78125 C184.01473599 -1.92343468 190.04953989 2.06989831 195.6796875 8.14453125 C206.80571163 22.33132909 211.625 39.70076599 211.625 57.625 C215.915 57.625 220.205 57.625 224.625 57.625 C224.5425 55.995625 224.46 54.36625 224.375 52.6875 C224.45311931 36.06761634 230.51922125 17.47060336 242.38671875 5.46484375 C250.21301107 -0.96828659 257.81765268 -3.41551241 267.94140625 -2.94921875 C276.89515136 -1.55345997 284.09327215 2.78859739 289.75 9.8359375 C299.68545492 24.6149267 304.74399138 40.75222097 303.625 58.625 C304.8625 58.66625 306.1 58.7075 307.375 58.75 C316.51070988 59.80024696 324.71848198 64.63850949 330.875 71.359375 C338.4597142 81.17887106 340.92875328 90.96880326 340.91552734 103.16113281 C340.92224457 104.06815445 340.92896179 104.97517609 340.93588257 105.90968323 C340.95474566 108.88255422 340.95878091 111.85519803 340.9609375 114.828125 C340.96737379 116.91404306 340.97410276 118.99996024 340.98110962 121.08587646 C340.99305339 125.45001313 340.99679346 129.81407081 340.99560547 134.17822266 C340.99540251 139.74043152 341.02269436 145.30212816 341.05714989 150.86421585 C341.07950709 155.17108435 341.0834403 159.47783133 341.08238602 163.78475189 C341.0847291 165.83384718 341.09347879 167.88294649 341.10905075 169.93198395 C341.21917297 185.91929624 340.29548462 198.80061246 329.625 211.625 C329.10303874 212.06965935 328.58107747 212.5143187 328.0432992 212.97245258 C326.19976647 215.12046568 326.24957995 216.28328512 326.24861908 219.08919621 C326.23720941 220.46833009 326.23720941 220.46833009 326.22556925 221.87532526 C326.23591015 223.39280121 326.23591015 223.39280121 326.24645996 224.94093323 C326.23966477 226.55128139 326.23966477 226.55128139 326.2327323 228.19416183 C326.22105766 231.80998259 326.23077606 235.42543701 326.24023438 239.04125977 C326.23613148 241.62643168 326.23067229 244.21160175 326.22395325 246.79676819 C326.21137248 252.37395476 326.20941882 257.95106381 326.21430969 263.52826118 C326.2211131 271.60287431 326.20860763 279.67737043 326.19080251 287.75196265 C326.16213262 300.86629354 326.14463536 313.98061181 326.13623047 327.0949707 C326.1354697 328.27277474 326.1354697 328.27277474 326.13469356 329.4743728 C326.13116774 335.04541504 326.12803891 340.61645747 326.125 346.1875 C326.12153327 352.53914407 326.11788331 358.89078796 326.11376953 365.24243164 C326.11326692 366.02455627 326.1127643 366.8066809 326.11224645 367.61250628 C326.10349242 380.66883693 326.08303299 393.72512434 326.05428743 406.78142589 C326.03713139 414.83135022 326.03051189 422.88115199 326.03759348 430.9310922 C326.04227904 437.10704617 326.03180206 443.28288902 326.01584435 449.45882225 C326.01184507 451.98794907 326.01296093 454.51709002 326.01961708 457.04621124 C326.02801775 460.50438225 326.01798544 463.96204095 326.00354004 467.42018127 C326.01388094 468.91423464 326.01388094 468.91423464 326.02443075 470.4384709 C325.93112036 481.94121583 322.5776367 491.00652026 314.87890625 499.56640625 C305.5305058 508.56497051 294.66212575 510.36720593 282.12719727 510.25991821 C280.69820193 510.26569162 279.26921404 510.27364088 277.84024143 510.28355443 C273.94537079 510.30428415 270.05111852 510.29417671 266.15624666 510.27862334 C261.94346872 510.26725633 257.73079314 510.28479892 253.51803589 510.29852295 C245.27785351 510.32070309 237.03789943 510.31597754 228.79770827 510.30145974 C222.09804019 510.29014688 215.39843589 510.28864545 208.69876099 510.29407883 C207.26598433 510.29522807 207.26598433 510.29522807 205.8042627 510.29640054 C203.86354786 510.29799924 201.92283305 510.29962031 199.98211825 510.3012635 C181.8034451 510.31550569 163.62489822 510.29915229 145.44624579 510.27226166 C129.86351471 510.24992428 114.2809699 510.25380484 98.69824219 510.27685547 C80.58260376 510.30364051 62.46707587 510.31413254 44.3514204 510.29879415 C42.41802662 510.29720148 40.48463283 510.29562963 38.55123901 510.29407883 C37.60008526 510.29330745 36.6489315 510.29253607 35.66895491 510.29174132 C28.98086513 510.28743243 22.29284573 510.29469335 15.60476685 510.30647659 C7.44912541 510.3205302 -0.70627555 510.31664166 -8.8618896 510.29007287 C-13.01944121 510.27697305 -17.17659254 510.27171633 -21.33414078 510.28831863 C-25.14644009 510.30331151 -28.95797134 510.29487837 -32.7702018 510.26843087 C-34.78882624 510.26027525 -36.80750477 510.27643991 -38.82607174 510.29371703 C-50.44233028 510.16974592 -59.93493979 507.01187733 -68.40234375 498.8671875 C-76.51853115 489.64205568 -78.68611668 480.72473392 -78.60636902 468.77662659 C-78.60722246 467.69414876 -78.6080759 466.61167094 -78.6089552 465.49639076 C-78.60956843 461.87455652 -78.59606152 458.25291134 -78.58276367 454.63110352 C-78.58060204 452.03224752 -78.57941579 449.43339057 -78.57913208 446.83453369 C-78.57753422 441.24050212 -78.56945231 435.64651098 -78.5576992 430.05249214 C-78.53979524 421.20741393 -78.54373099 412.3624066 -78.55134583 403.51731873 C-78.55370079 400.48855311 -78.55594057 397.45978741 -78.55816364 394.43102169 C-78.55872818 393.67419226 -78.55929271 392.91736282 -78.55987435 392.13759916 C-78.56606277 383.53045389 -78.56841587 374.9233095 -78.56860352 366.31616211 C-78.56862695 365.52970619 -78.56865039 364.74325027 -78.56867454 363.93296235 C-78.56842402 351.18355255 -78.54930228 338.43422412 -78.52500685 325.68484069 C-78.50068023 312.58541546 -78.50311795 299.48617163 -78.52868825 286.38674873 C-78.54347603 278.31179765 -78.53648379 270.23745651 -78.50138716 262.16256546 C-78.47657138 255.97424976 -78.488242 249.78649321 -78.51343155 243.59819031 C-78.51793276 241.06175902 -78.51045158 238.52527387 -78.49010277 235.98892021 C-78.4640571 232.52512249 -78.48106338 229.06408244 -78.50871277 225.60035706 C-78.49084959 224.59733333 -78.47298641 223.5943096 -78.45458192 222.56089121 C-78.58469505 215.04772111 -81.11152135 211.75938324 -86.375 206.625 C-88.08203125 203.9375 -88.08203125 203.9375 -89.1875 201.625 C-89.75404297 200.4803125 -89.75404297 200.4803125 -90.33203125 199.3125 C-92.96402884 192.53042382 -93.67083057 186.36887057 -93.6496582 179.1706543 C-93.65476913 178.2605661 -93.65988007 177.35047791 -93.66514587 176.41281128 C-93.67896702 173.4248789 -93.67809053 170.43717917 -93.67578125 167.44921875 C-93.6796727 165.35708024 -93.68400829 163.26494251 -93.68876648 161.17280579 C-93.69621295 156.79429561 -93.69594912 152.41586609 -93.69067383 148.03735352 C-93.68488586 142.44921785 -93.7018018 136.86141435 -93.7250185 131.27333355 C-93.73981085 126.95368038 -93.74061999 122.63410616 -93.73750877 118.31443214 C-93.73801937 116.25532181 -93.74320753 114.19620676 -93.75332069 112.1371212 C-93.8247206 95.56553923 -92.84882447 81.77515599 -81.25 68.875 C-73.4032308 61.58009149 -63.81933809 58.69906314 -53.375 57.625 C-53.42140625 56.95597656 -53.4678125 56.28695312 -53.515625 55.59765625 C-54.16309957 38.37020799 -48.44640628 20.98166865 -37.625 7.5 C-27.3991541 -2.84498197 -13.44738596 -5.98802174 0 0 Z M-14.375 24.625 C-23.66394559 34.12505799 -24.97618071 44.91905812 -26.375 57.625 C-18.125 57.625 -9.875 57.625 -1.375 57.625 C-2.60496033 40.40009678 -2.60496033 40.40009678 -11.6875 26.375 C-12.574375 25.7975 -13.46125 25.22 -14.375 24.625 Z M170.625 24.625 C161.70339742 34.29006946 159.625 44.74990385 159.625 57.625 C167.545 57.625 175.465 57.625 183.625 57.625 C183.13036735 46.12479099 181.37532594 34.71158903 173.625 25.625 C172.635 25.295 171.645 24.965 170.625 24.625 Z M263.625 24.625 C254.20459119 34.47360921 252.95886669 44.50864425 251.625 57.625 C259.875 57.625 268.125 57.625 276.625 57.625 C275.18303443 41.56091907 275.18303443 41.56091907 267.625 27.625 C265.51924357 25.79199091 265.51924357 25.79199091 263.625 24.625 Z M78.625 24.625 C70.97227396 30.96583015 67.64465264 40.94590929 66.625 50.625 C66.625 52.935 66.625 55.245 66.625 57.625 C74.545 57.625 82.465 57.625 90.625 57.625 C90.625 46.73842283 89.33422723 36.57697174 82.625 27.625 C80.55879208 25.90634417 80.55879208 25.90634417 78.625 24.625 Z " fill="#E0DBF0" transform="translate(132.375,2.375)"/>
<path d="M0 0 C13.11707178 7.58853415 19.49587907 20.55757326 23.5 34.6875 C23.89238891 36.32927444 24.27053731 37.97462169 24.625 39.625 C24.851875 40.594375 25.07875 41.56375 25.3125 42.5625 C25.82471853 47.58224157 25.68103675 52.58169205 25.625 57.625 C29.915 57.625 34.205 57.625 38.625 57.625 C38.7075 55.645 38.79 53.665 38.875 51.625 C40.21249074 33.69539438 45.70997066 15.87022582 59.625 3.625 C68.2723871 -2.28587219 76.32471835 -3.29911801 86.625 -2.375 C95.47288171 0.40148371 102.28120936 6.24372361 107.1875 14 C107.57172119 14.60505371 107.95594238 15.21010742 108.35180664 15.83349609 C115.9634234 28.34966254 119.11012172 43.07134853 118.625 57.625 C122.915 57.625 127.205 57.625 131.625 57.625 C131.563125 56.47 131.50125 55.315 131.4375 54.125 C131.51742573 37.12746113 137.19645035 19.34491119 148.625 6.625 C156.62164282 -0.82120469 164.83435704 -3.16129993 175.67578125 -2.78125 C184.01473599 -1.92343468 190.04953989 2.06989831 195.6796875 8.14453125 C206.80571163 22.33132909 211.625 39.70076599 211.625 57.625 C215.915 57.625 220.205 57.625 224.625 57.625 C224.5425 55.995625 224.46 54.36625 224.375 52.6875 C224.45311931 36.06761634 230.51922125 17.47060336 242.38671875 5.46484375 C250.21301107 -0.96828659 257.81765268 -3.41551241 267.94140625 -2.94921875 C276.89515136 -1.55345997 284.09327215 2.78859739 289.75 9.8359375 C299.68545492 24.6149267 304.74399138 40.75222097 303.625 58.625 C304.8625 58.66625 306.1 58.7075 307.375 58.75 C316.51070988 59.80024696 324.71848198 64.63850949 330.875 71.359375 C338.4597142 81.17887106 340.92875328 90.96880326 340.91552734 103.16113281 C340.92224457 104.06815445 340.92896179 104.97517609 340.93588257 105.90968323 C340.95474566 108.88255422 340.95878091 111.85519803 340.9609375 114.828125 C340.96737379 116.91404306 340.97410276 118.99996024 340.98110962 121.08587646 C340.99305339 125.45001313 340.99679346 129.81407081 340.99560547 134.17822266 C340.99540251 139.74043152 341.02269436 145.30212816 341.05714989 150.86421585 C341.07950709 155.17108435 341.0834403 159.47783133 341.08238602 163.78475189 C341.0847291 165.83384718 341.09347879 167.88294649 341.10905075 169.93198395 C341.21684641 185.58153099 340.55458804 199.30476855 329.625 211.625 C320.4883918 220.7616082 309.06163203 224.16645727 296.375844 224.29371703 C294.97671463 224.28291238 293.57758888 224.27162934 292.1784668 224.25991821 C290.65857609 224.26569201 289.13869239 224.27364151 287.61882305 224.28355443 C283.47731992 224.3042787 279.33639855 224.29417908 275.19489431 224.27862334 C270.71490281 224.26725413 266.23500745 224.28480002 261.7550354 224.29852295 C252.9926153 224.32070072 244.23040992 224.31597858 235.46798158 224.30145974 C228.3435759 224.29014595 221.2192302 224.28864585 214.09481812 224.29407883 C213.07899995 224.29484499 212.06318178 224.29561116 211.01658124 224.29640054 C208.95265967 224.29799924 206.88873812 224.29962031 204.82481658 224.3012635 C185.49298435 224.315505 166.16127087 224.29915337 146.82945812 224.27226166 C130.25896732 224.24992435 113.6886517 224.25380493 97.11816406 224.27685547 C77.85326792 224.30364172 58.58847574 224.31413186 39.32356358 224.29879415 C37.26743636 224.29720148 35.21130913 224.29562963 33.15518188 224.29407883 C32.1436534 224.29330745 31.13212492 224.29253607 30.08994406 224.29174132 C22.97801787 224.2874328 15.86615788 224.29469256 8.75424194 224.30647659 C0.08153173 224.32053154 -8.59095236 224.31663881 -17.26363683 224.29007287 C-21.68459591 224.27697491 -26.1051786 224.27171326 -30.52613449 224.28831863 C-34.58021812 224.30331518 -38.63357965 224.29487207 -42.68759859 224.26843087 C-44.14704761 224.26288669 -45.60655877 224.26559407 -47.0659672 224.27780981 C-57.02759148 224.35473756 -64.36602759 222.82043548 -73.375 218.625 C-73.375 217.965 -73.375 217.305 -73.375 216.625 C-74.220625 216.46 -75.06625 216.295 -75.9375 216.125 C-83.20667494 212.95299639 -86.92647466 206.19335155 -90.33203125 199.3125 C-92.96402884 192.53042382 -93.67083057 186.36887057 -93.6496582 179.1706543 C-93.65476913 178.2605661 -93.65988007 177.35047791 -93.66514587 176.41281128 C-93.67896702 173.4248789 -93.67809053 170.43717917 -93.67578125 167.44921875 C-93.6796727 165.35708024 -93.68400829 163.26494251 -93.68876648 161.17280579 C-93.69621295 156.79429561 -93.69594912 152.41586609 -93.69067383 148.03735352 C-93.68488586 142.44921785 -93.7018018 136.86141435 -93.7250185 131.27333355 C-93.73981085 126.95368038 -93.74061999 122.63410616 -93.73750877 118.31443214 C-93.73801937 116.25532181 -93.74320753 114.19620676 -93.75332069 112.1371212 C-93.8247206 95.56553923 -92.84882447 81.77515599 -81.25 68.875 C-73.4032308 61.58009149 -63.81933809 58.69906314 -53.375 57.625 C-53.42140625 56.95597656 -53.4678125 56.28695312 -53.515625 55.59765625 C-54.16309957 38.37020799 -48.44640628 20.98166865 -37.625 7.5 C-27.3991541 -2.84498197 -13.44738596 -5.98802174 0 0 Z M-14.375 24.625 C-23.66394559 34.12505799 -24.97618071 44.91905812 -26.375 57.625 C-18.125 57.625 -9.875 57.625 -1.375 57.625 C-2.60496033 40.40009678 -2.60496033 40.40009678 -11.6875 26.375 C-12.574375 25.7975 -13.46125 25.22 -14.375 24.625 Z M170.625 24.625 C161.70339742 34.29006946 159.625 44.74990385 159.625 57.625 C167.545 57.625 175.465 57.625 183.625 57.625 C183.13036735 46.12479099 181.37532594 34.71158903 173.625 25.625 C172.635 25.295 171.645 24.965 170.625 24.625 Z M263.625 24.625 C254.20459119 34.47360921 252.95886669 44.50864425 251.625 57.625 C259.875 57.625 268.125 57.625 276.625 57.625 C275.18303443 41.56091907 275.18303443 41.56091907 267.625 27.625 C265.51924357 25.79199091 265.51924357 25.79199091 263.625 24.625 Z M78.625 24.625 C70.97227396 30.96583015 67.64465264 40.94590929 66.625 50.625 C66.625 52.935 66.625 55.245 66.625 57.625 C74.545 57.625 82.465 57.625 90.625 57.625 C90.625 46.73842283 89.33422723 36.57697174 82.625 27.625 C80.55879208 25.90634417 80.55879208 25.90634417 78.625 24.625 Z " fill="#FCCC62" transform="translate(132.375,2.375)"/>
<path d="M0 0 C6.37221688 3.57798274 11.10818045 8.03498473 15 14.1875 C15.38422119 14.79255371 15.76844238 15.39760742 16.16430664 16.02099609 C27.66080302 34.92526659 29.60374279 60.5571011 24.4375 81.8125 C24.18097656 82.92625 23.92445313 84.04 23.66015625 85.1875 C20.22944961 98.61584532 14.45461268 110.07942288 3.4375 118.8125 C-3.05700947 122.62802431 -9.99488163 124.7191032 -17.5625 123.8125 C-24.23819411 122.07019118 -29.72076754 119.78164647 -34.5625 114.8125 C-36.52461791 108.92614627 -36.579486 102.21014423 -34 96.5 C-31.14250616 91.54020713 -27.00801331 87.6276711 -21.5625 85.8125 C-21.17578125 86.4621875 -20.7890625 87.111875 -20.390625 87.78125 C-19.60945313 89.03421875 -19.60945313 89.03421875 -18.8125 90.3125 C-18.30203125 91.1478125 -17.7915625 91.983125 -17.265625 92.84375 C-16.70359375 93.4934375 -16.1415625 94.143125 -15.5625 94.8125 C-11.60664082 95.26017962 -11.60664082 95.26017962 -9.5625 93 C-0.25204291 78.16145902 -0.23223704 60.44510544 -3.5625 43.8125 C-5.32513507 37.56528457 -7.52448349 31.92732091 -11.5625 26.8125 C-12.2225 26.4825 -12.8825 26.1525 -13.5625 25.8125 C-22.95286575 34.54494204 -23.84156992 46.76598944 -25.5625 58.8125 C-34.8025 58.8125 -44.0425 58.8125 -53.5625 58.8125 C-52.80717625 39.17408244 -49.04554567 20.59536261 -34.90625 5.875 C-25.4445856 -2.45126467 -11.68667373 -5.6830014 0 0 Z " fill="#5B9BEA" transform="translate(224.5625,2.1875)"/>
<path d="M0 0 C13.11707178 7.58853415 19.49587907 20.55757326 23.5 34.6875 C29.38457676 58.26305119 27.11434977 84.89236925 14.68505859 105.94042969 C9.23033518 114.60869122 2.56198211 119.4376908 -6.9375 122.9375 C-16.74226971 124.89845394 -23.2521695 122.36937348 -31.875 117.75 C-35.81694925 114.39934314 -36.22389509 111.25693302 -36.6875 106.25 C-36.0205167 98.51299369 -33.00426079 93.13718786 -27.4375 87.75 C-25.375 86.625 -25.375 86.625 -22.875 86.5 C-19.08493126 88.20553093 -18.31889934 90.99638791 -16.375 94.625 C-15.385 94.955 -14.395 95.285 -13.375 95.625 C-5.60184615 88.38792572 -2.6129404 78.42361872 -2.015625 68.01171875 C-1.63416012 54.7348473 -2.46876026 39.82363985 -10.375 28.625 C-12.43492769 26.8847495 -12.43492769 26.8847495 -14.375 25.625 C-23.1048082 34.59730287 -24.34831641 46.768901 -26.375 58.625 C-35.285 58.625 -44.195 58.625 -53.375 58.625 C-53.375 39.57280379 -49.609682 19.62430936 -35.61328125 5.46484375 C-25.13064693 -3.1517719 -12.62943705 -5.62379512 0 0 Z " fill="#5B9BE9" transform="translate(132.375,2.375)"/>
<path d="M0 0 C12.64004429 7.32682621 19.40686244 20.69562934 23.54003906 34.32617188 C28.23929658 52.19213411 27.4194274 73.08773299 21.5625 90.5625 C21.20027344 91.65304688 20.83804688 92.74359375 20.46484375 93.8671875 C16.3948928 104.7111924 9.72356446 114.64785054 -0.4375 120.5625 C-8.37886665 124.0082874 -15.4401713 124.8795883 -23.5625 121.8125 C-33.20056188 117.58658056 -33.20056188 117.58658056 -35.8125 113.3125 C-37.38100199 106.41109126 -36.57906577 100.81878054 -33.4375 94.5625 C-30.9335755 90.80661326 -28.50477296 88.54399195 -24.4375 86.5625 C-23.4475 86.5625 -22.4575 86.5625 -21.4375 86.5625 C-20.15625 88.27734375 -20.15625 88.27734375 -18.9375 90.5 C-17.09629256 94.02023724 -17.09629256 94.02023724 -13.4375 95.5625 C-5.06480226 87.88455803 -2.86022188 76.75632062 -2.21875 65.83984375 C-1.80876726 53.18783855 -2.92796501 39.19923512 -10.4375 28.5625 C-12.49742769 26.8222495 -12.49742769 26.8222495 -14.4375 25.5625 C-23.28666551 34.90328582 -24.49137884 46.30193669 -26.4375 58.5625 C-35.3475 58.5625 -44.2575 58.5625 -53.4375 58.5625 C-53.4375 39.51030379 -49.672182 19.56180936 -35.67578125 5.40234375 C-25.15885204 -3.24246193 -12.64410596 -5.69223938 0 0 Z " fill="#5A99E8" transform="translate(410.4375,2.4375)"/>
<path d="M0 0 C12.96584664 7.82720842 20.18907288 21.24716679 23.75390625 35.6015625 C24.00011719 36.72304688 24.24632812 37.84453125 24.5 39 C24.85384766 40.46566406 24.85384766 40.46566406 25.21484375 41.9609375 C29.41103088 62.85959496 26.07474592 89.38377643 14.25 107.3125 C8.25345518 115.31658374 1.69401726 121.02164525 -8 123.6875 C-16.18254301 124.71031788 -23.52296119 123.25011307 -30.50390625 118.69140625 C-32.61802064 116.97464348 -34.27328882 115.45342236 -35.5 113 C-36.21254294 105.81349554 -36.4314971 99.60716797 -32 93.65234375 C-28.88571975 90.22176941 -25.98172991 87.49390997 -21.5 86 C-21.18546875 86.55429688 -20.8709375 87.10859375 -20.546875 87.6796875 C-19.90492188 88.76636719 -19.90492188 88.76636719 -19.25 89.875 C-18.83234375 90.59429687 -18.4146875 91.31359375 -17.984375 92.0546875 C-16.34071924 94.20874162 -14.98432665 94.99140585 -12.5 96 C-4.04327622 86.63719867 -2.11725065 75.00377299 -2.1875 62.8125 C-2.19313965 61.79381836 -2.1987793 60.77513672 -2.20458984 59.72558594 C-2.3965464 47.79387073 -4.24732376 36.89688111 -11.5 27 C-12.49 26.67 -13.48 26.34 -14.5 26 C-22.17784982 34.50047659 -24.31094687 45.16541622 -25.25390625 56.25 C-25.5 58 -25.5 58 -26.5 59 C-28.49964982 59.08758003 -30.5023611 59.10696576 -32.50390625 59.09765625 C-33.71884766 59.09443359 -34.93378906 59.09121094 -36.18554688 59.08789062 C-37.46494141 59.07951172 -38.74433594 59.07113281 -40.0625 59.0625 C-41.34576172 59.05798828 -42.62902344 59.05347656 -43.95117188 59.04882812 C-47.13416022 59.03699545 -50.31705762 59.02051068 -53.5 59 C-53.88729964 40.22553032 -49.31934732 21.26786115 -36.5 7 C-26.70782399 -2.11814477 -12.55060937 -5.7596595 0 0 Z " fill="#5898E8" transform="translate(317.5,2)"/>
<path d="M0 0 C1.54872359 -0.01059839 1.54872359 -0.01059839 3.12873453 -0.02141088 C4.8278862 -0.01778826 4.8278862 -0.01778826 6.56136417 -0.01409245 C8.3681709 -0.02194746 8.3681709 -0.02194746 10.21147877 -0.02996117 C13.55631971 -0.04238317 16.90095056 -0.04580431 20.24580014 -0.04536426 C23.85255904 -0.04701167 27.45927959 -0.06007659 31.0660181 -0.07155704 C38.95222853 -0.09441014 46.83841205 -0.10232766 54.7246511 -0.10738349 C59.64749125 -0.1106395 64.57032357 -0.1171613 69.49315929 -0.12438488 C83.12003261 -0.14394953 96.74689866 -0.16035509 110.37378693 -0.16326141 C111.68185746 -0.16354277 111.68185746 -0.16354277 113.01635367 -0.16382981 C114.78423218 -0.16419606 116.55211069 -0.16455976 118.3199892 -0.16492092 C119.19757766 -0.16510373 120.07516613 -0.16528654 120.97934818 -0.16547489 C121.85800598 -0.16565544 122.73666378 -0.16583599 123.64194757 -0.16602201 C137.88737428 -0.16956557 152.13265001 -0.19659988 166.37802433 -0.23397278 C180.99941368 -0.2720257 195.62072803 -0.29141866 210.24216801 -0.29172093 C218.45334232 -0.2923061 226.66433643 -0.30083694 234.87546444 -0.32971859 C241.86547628 -0.35419199 248.85524216 -0.36154275 255.84528523 -0.34647106 C259.41260686 -0.33928595 262.97944242 -0.34022746 266.54671001 -0.36288166 C270.41167552 -0.38719171 274.27594214 -0.37288095 278.14095402 -0.35466862 C279.83675961 -0.37446857 279.83675961 -0.37446857 281.5668239 -0.39466852 C289.12494116 -0.31297027 289.12494116 -0.31297027 293.11144447 2.57973289 C295.50805255 6.14210864 295.66677759 8.04815286 294.91465092 12.26006222 C293.11339664 14.93912983 293.11339664 14.93912983 289.91465092 17.26006222 C285.98513009 18.01188631 282.10023585 17.93423849 278.10971928 17.89498043 C276.90024348 17.90278038 275.69076769 17.91058034 274.44464111 17.91861665 C271.09023046 17.93511465 267.73721883 17.92917257 264.38289309 17.91368556 C260.76453389 17.90237914 257.14629753 17.91983117 253.52796268 17.93358517 C246.44086256 17.95582984 239.35402705 17.95101102 232.26691651 17.93652196 C226.50761666 17.92523451 220.74839102 17.92369667 214.98908329 17.92914104 C213.7600045 17.93029029 213.7600045 17.93029029 212.50609583 17.93146276 C210.84158013 17.93306137 209.17706446 17.93468243 207.5125488 17.93632571 C191.90074889 17.95058681 176.28909573 17.93418487 160.67731988 17.90732388 C147.27881767 17.88498475 133.88053204 17.88886477 120.48203373 17.91191769 C104.92648501 17.93866936 89.37106495 17.94921348 73.81549644 17.93385637 C72.1570705 17.93226361 70.49864453 17.93069175 68.84021854 17.92914104 C67.61622133 17.92798398 67.61622133 17.92798398 66.36749691 17.92680354 C60.6144559 17.92248463 54.86149643 17.92977718 49.10846806 17.94153881 C42.09831922 17.95555536 35.08845034 17.95178191 28.07833362 17.92513509 C24.50090198 17.91198521 20.92393727 17.90686377 17.34650898 17.92338085 C13.47060222 17.9410055 9.59546169 17.91997612 5.71958256 17.89498043 C4.58583667 17.90613404 3.45209078 17.91728765 2.28398895 17.92877924 C-5.30137941 17.83349241 -5.30137941 17.83349241 -9.29581356 14.91178608 C-11.47487385 11.68286657 -11.65488585 10.08409482 -11.08534908 6.26006222 C-10.2232094 3.67364316 -9.6448893 2.60753053 -7.3250584 1.16694111 C-4.7232987 0.11346469 -2.80399998 0.00613333 0 0 Z " fill="#C6B1DC" transform="translate(114.08534908294678,388.7399377822876)"/>
<path d="M0 0 C1.54275045 -0.00761181 1.54275045 -0.00761181 3.11666757 -0.0153774 C4.82455777 -0.01612404 4.82455777 -0.01612404 6.5669508 -0.01688576 C8.37119425 -0.02345914 8.37119425 -0.02345914 10.21188706 -0.03016531 C13.5611913 -0.04124728 16.91044871 -0.04778312 20.25976455 -0.05234647 C23.86791201 -0.05829614 27.47604217 -0.06990749 31.08417797 -0.08063698 C39.80275343 -0.1051744 48.52133462 -0.11978949 57.239934 -0.13269705 C59.70137596 -0.13640781 62.16281736 -0.14038113 64.62425876 -0.14444971 C79.9013734 -0.16968352 95.17848892 -0.191742 110.45561981 -0.20417786 C113.99526822 -0.20710767 117.5349166 -0.21006932 121.07456493 -0.21308327 C122.39424814 -0.21420234 122.39424814 -0.21420234 123.74059161 -0.21534403 C137.99907166 -0.22800312 152.25742717 -0.26123291 166.51584897 -0.3028851 C181.14620783 -0.3452744 195.77650287 -0.36886935 210.406923 -0.37409842 C218.62484353 -0.37751581 226.84256938 -0.38930952 235.06042957 -0.42220116 C242.05779889 -0.45016156 249.05493364 -0.46121873 256.05235449 -0.4500057 C259.62372022 -0.44480875 263.19459442 -0.44777178 266.76588917 -0.47247124 C270.6353246 -0.49900975 274.50408508 -0.48693851 278.37359142 -0.47098732 C279.50549272 -0.48486941 280.63739402 -0.49875149 281.80359536 -0.51305425 C289.3709077 -0.43585714 289.3709077 -0.43585714 293.35838127 2.4562645 C295.75374849 6.0190164 295.91281893 7.92540917 295.16074657 12.13701439 C293.3594923 14.816082 293.3594923 14.816082 290.16074657 17.13701439 C286.23122575 17.88883848 282.34633151 17.81119066 278.35581493 17.7719326 C277.14633914 17.77973256 275.93686335 17.78753251 274.69073677 17.79556882 C271.33632611 17.81206682 267.98331448 17.80612474 264.62898874 17.79063773 C261.01062955 17.77933131 257.39239319 17.79678334 253.77405834 17.81053734 C246.68695822 17.83278201 239.60012271 17.8279632 232.51301217 17.81347413 C226.75371232 17.80218668 220.99448668 17.80064884 215.23517895 17.80609322 C214.00610015 17.80724246 214.00610015 17.80724246 212.75219148 17.80841493 C211.08767579 17.81001354 209.42316011 17.81163461 207.75864446 17.81327789 C192.14684455 17.82753898 176.53519139 17.81113704 160.92341554 17.78427605 C147.52491333 17.76193692 134.12662769 17.76581695 120.72812939 17.78886986 C105.17258067 17.81562153 89.61716061 17.82616565 74.0615921 17.81080854 C72.40316616 17.80921578 70.74474019 17.80764392 69.0863142 17.80609322 C67.86231699 17.80493615 67.86231699 17.80493615 66.61359257 17.80375571 C60.86055156 17.7994368 55.10759209 17.80672935 49.35456371 17.81849098 C42.34441487 17.83250753 35.334546 17.82873408 28.32442927 17.80208726 C24.74699764 17.78893738 21.17003292 17.78381594 17.59260464 17.80033302 C13.71669787 17.81795767 9.84155735 17.79692829 5.96567822 17.7719326 C4.83193233 17.78308621 3.69818644 17.79423982 2.53008461 17.80573142 C-5.05854607 17.7104036 -5.05854607 17.7104036 -9.0419054 14.784832 C-11.26191215 11.5143619 -11.56615516 10.01382365 -10.83925343 6.13701439 C-7.59731232 1.27410274 -5.71208666 0.0149135 0 0 Z " fill="#C9B5DF" transform="translate(113.83925342559814,447.8629856109619)"/>
<path d="M0 0 C1.54648507 -0.01173486 1.54648507 -0.01173486 3.12421227 -0.02370679 C4.81315825 -0.01366855 4.81315825 -0.01366855 6.53622437 -0.00342751 C8.3381874 -0.01044746 8.3381874 -0.01044746 10.17655373 -0.01760924 C13.50784592 -0.02750675 16.83863091 -0.02394233 20.16989231 -0.01465058 C23.76368012 -0.00786656 27.35742341 -0.0183381 30.95120239 -0.02659035 C37.99012156 -0.0399368 45.02894481 -0.0370459 52.06786776 -0.02835242 C57.78806121 -0.02157987 63.50822776 -0.0206573 69.22842407 -0.02392387 C70.44917678 -0.02461342 70.44917678 -0.02461342 71.69459116 -0.0253169 C73.34783285 -0.02627607 75.00107452 -0.02724871 76.65431619 -0.02823468 C92.16020955 -0.03679124 107.66604973 -0.02695026 123.17193437 -0.01083358 C136.47942616 0.00256985 149.78683945 0.00024183 163.09432983 -0.01358986 C178.54437999 -0.02964097 193.99438351 -0.03596724 209.44444084 -0.02675307 C211.09163284 -0.02579741 212.73882484 -0.0248543 214.38601685 -0.02392387 C215.60172172 -0.02322963 215.60172172 -0.02322963 216.8419863 -0.02252137 C222.55593396 -0.01993007 228.26985208 -0.02430549 233.98379517 -0.03136253 C240.94630054 -0.03977252 247.90870444 -0.03750799 254.87119818 -0.0215203 C258.42422668 -0.01363078 261.97708593 -0.01055745 265.53011322 -0.02046776 C269.37957691 -0.03104259 273.22876287 -0.01842393 277.07821655 -0.00342751 C278.76716254 -0.01346575 278.76716254 -0.01346575 280.49022865 -0.02370679 C281.5212187 -0.01588355 282.55220875 -0.00806031 283.61444092 0 C284.9471808 0.00073059 284.9471808 0.00073059 286.30684471 0.00147593 C289.38947241 0.46509202 291.28620117 1.57356442 293.80722046 3.37752342 C295.3765764 6.5162353 295.15923149 8.91608164 294.80722046 12.37752342 C293.01963902 15.0695715 293.01963902 15.0695715 289.80722046 17.37752342 C285.88673937 18.12202222 282.01371191 18.03872629 278.03352356 17.99225426 C276.22437685 18.00077914 276.22437685 18.00077914 274.37868172 18.00947624 C271.03371034 18.02016297 267.69017769 18.00841122 264.34534657 17.98716962 C260.73726108 17.96969158 257.12925205 17.98105662 253.52114868 17.98883629 C246.45440736 17.99951238 239.38796383 17.98355427 232.3212679 17.95869803 C224.0945419 17.930783 215.8678764 17.92942509 207.6411109 17.92925502 C192.96472749 17.92806742 178.28848097 17.90308748 163.6121521 17.86458397 C149.3653906 17.82723154 135.11872867 17.80598801 120.87191772 17.80306053 C119.99432926 17.80287772 119.11674079 17.80269491 118.21255874 17.80250656 C116.89846909 17.8022381 116.89846909 17.8022381 115.55783218 17.80196422 C113.79400694 17.80159881 112.0301817 17.80122644 110.26635647 17.80084705 C109.39653478 17.80066154 108.5267131 17.80047602 107.63053318 17.80028489 C94.06066407 17.79671579 80.49081037 17.77826568 66.92095689 17.75835381 C61.99993171 17.75132838 57.07891019 17.74654731 52.15788107 17.74339246 C44.35307623 17.73834623 36.54834071 17.72693519 28.74357157 17.70209216 C25.17653065 17.69085999 21.60955791 17.68275635 18.04249763 17.68322563 C14.17958108 17.68358994 10.31681593 17.66847181 6.45393372 17.65167809 C5.32116593 17.65409317 4.18839815 17.65650825 3.02130407 17.65899652 C1.98882168 17.65193093 0.95633928 17.64486534 -0.10743046 17.63758564 C-0.99934119 17.63563472 -1.89125193 17.63368379 -2.81019026 17.63167375 C-5.42348994 17.35291359 -6.99270798 16.80341663 -9.19277954 15.37752342 C-11.33530603 12.1637337 -11.46470413 11.52579162 -11.13027954 7.87752342 C-11.07742798 7.10408592 -11.02457642 6.33064842 -10.97012329 5.53377342 C-9.26302392 0.7985028 -4.56317784 0.00250146 0 0 Z " fill="#C6B2DD" transform="translate(114.19277954101563,329.6224765777588)"/>
<path d="M0 0 C1.54051193 -0.00576172 1.54051193 -0.00576172 3.1121453 -0.01163983 C4.80982982 -0.01034011 4.80982982 -0.01034011 6.54181099 -0.00901413 C7.74141083 -0.01198525 8.94101067 -0.01495637 10.17696202 -0.01801753 C13.5126094 -0.02520556 16.84820529 -0.02787745 20.18385673 -0.028615 C23.77903112 -0.03046444 27.37419432 -0.03801117 30.96936226 -0.04475021 C38.83290436 -0.05833795 46.69644137 -0.06435879 54.55999327 -0.06876087 C59.46825169 -0.07152225 64.37650815 -0.07575938 69.28476524 -0.08026505 C82.86956534 -0.09245771 96.45436386 -0.10275741 110.03916931 -0.10614014 C110.90878385 -0.1063597 111.77839838 -0.10657927 112.67436487 -0.10680549 C113.54607798 -0.10702377 114.4177911 -0.10724204 115.31591976 -0.10746694 C117.08238912 -0.1079104 118.84885848 -0.10835697 120.61532784 -0.10880661 C121.92967686 -0.10913875 121.92967686 -0.10913875 123.2705784 -0.10947761 C137.47399216 -0.11342704 151.67735466 -0.13088547 165.88074861 -0.15416613 C180.45689974 -0.17786532 195.03302512 -0.19034131 209.60919583 -0.19150805 C217.79574571 -0.19242556 225.98222879 -0.19819697 234.1687603 -0.21632767 C241.13862058 -0.23170927 248.10839342 -0.23686059 255.07826744 -0.22858956 C258.63534168 -0.22467629 262.19223969 -0.22564545 265.74929237 -0.23964691 C269.60322285 -0.25467848 273.45690378 -0.24653946 277.31085396 -0.23606491 C278.43818219 -0.24412132 279.56551042 -0.25217772 280.72700012 -0.26047826 C281.75922356 -0.25388841 282.79144701 -0.24729857 283.85494995 -0.24050903 C284.74452735 -0.24110612 285.63410475 -0.24170321 286.55063903 -0.24231839 C289.63598489 0.21844267 291.53085533 1.325762 294.05331612 3.13142776 C295.59918487 6.22316528 295.34691133 8.72572329 295.05331612 12.13142776 C293.18623107 14.49640216 291.73270181 15.79173492 289.05331612 17.13142776 C287.44775399 17.22861744 285.83817784 17.26241502 284.22968006 17.26564884 C283.20466316 17.27010669 282.17964626 17.27456453 281.12356824 17.27915746 C279.98886572 17.2789731 278.8541632 17.27878873 277.68507576 17.27859879 C275.88695764 17.28411382 275.88695764 17.28411382 274.0525139 17.28974026 C270.71460918 17.29887913 267.37675369 17.30347942 264.03884113 17.30612957 C260.44296557 17.31002822 256.84710432 17.31960682 253.25123787 17.32834244 C244.5623214 17.34811871 235.87340374 17.35817427 227.18447039 17.36707023 C223.09522756 17.37145099 219.00598603 17.37681833 214.91674423 17.3820591 C201.32769699 17.39907211 187.73865057 17.41356724 174.14959431 17.42080784 C170.62197748 17.42271781 167.09436065 17.42463813 163.56674385 17.42659378 C162.68994566 17.42707752 161.81314748 17.42756126 160.90977965 17.42805966 C146.6998192 17.43636354 132.48994284 17.46170615 118.28001913 17.49417446 C103.69937996 17.52721892 89.11878356 17.54525421 74.53810674 17.54845208 C66.34816387 17.55061954 58.15834363 17.55940268 49.96843719 17.58491325 C42.99487661 17.60658458 36.02146843 17.61468833 29.04787799 17.60494647 C25.48873218 17.6003914 21.92990107 17.60235738 18.37079811 17.62170792 C14.51456935 17.64249318 10.65877776 17.6323876 6.8025074 17.61917496 C5.67449705 17.6301442 4.5464867 17.64111345 3.38429421 17.6524151 C-4.18412723 17.58953624 -4.18412723 17.58953624 -8.11850834 15.22594357 C-10.35222188 12.66680841 -10.90073074 11.65988894 -11.19668388 8.25642776 C-10.91958198 4.79265397 -10.3739916 3.55873548 -7.94668388 1.13142776 C-4.99185965 0.14648636 -3.0804373 0.00431796 0 0 Z " fill="#CAB7E0" transform="translate(113.94668388366699,270.8685722351074)"/>
<path d="M0 0 C3 1 3 1 4.5 3.5546875 C14.82419866 26.40773141 16.8319976 52.95351534 9 77 C7.52405465 80.78393922 5.92269323 84.42252982 4 88 C3.86722656 87.36707031 3.73445312 86.73414062 3.59765625 86.08203125 C3.18259616 83.90530562 3.18259616 83.90530562 1.4375 82.6875 C-0.83738543 80.01698232 -0.19045839 77.36476492 0 74 C-0.66 74 -1.32 74 -2 74 C-1.98952637 73.32122803 -1.97905273 72.64245605 -1.96826172 71.94311523 C-1.81081707 60.16964378 -1.72447111 48.75792693 -3.625 37.1171875 C-4.09276838 33.22886285 -3.80460763 29.70895529 -3.19140625 25.85546875 C-2.82272588 23.90735402 -2.82272588 23.90735402 -4 22 C-3.93724103 19.02674389 -3.5271799 16.07813548 -3.1875 13.125 C-3.10435547 12.30902344 -3.02121094 11.49304687 -2.93554688 10.65234375 C-2.84724609 9.86214844 -2.75894531 9.07195313 -2.66796875 8.2578125 C-2.58828857 7.5373877 -2.5086084 6.81696289 -2.42651367 6.07470703 C-1.9577784 3.79461984 -1.12197198 2.03012612 0 0 Z " fill="#213C9D" transform="translate(145,17)"/>
<path d="M0 0 C0.66 0 1.32 0 2 0 C14.45234908 22.38624554 17.52172577 48.47391393 10.6328125 73.37109375 C6.67978257 86.14404935 6.67978257 86.14404935 3 89 C3 87.02 3 85.04 3 83 C2.34 82.67 1.68 82.34 1 82 C-0.01944169 76.96793931 -0.13496204 71.993294 -0.09765625 66.87890625 C-0.0962413 66.13414536 -0.09482635 65.38938446 -0.09336853 64.62205505 C-0.08781989 62.26882727 -0.07527733 59.9156985 -0.0625 57.5625 C-0.05747835 55.95638159 -0.05291661 54.35026168 -0.04882812 52.74414062 C-0.03786735 48.82938957 -0.02063884 44.91471151 0 41 C-0.99 41.66 -1.98 42.32 -3 43 C-2.90567238 38.32234683 -2.79941421 33.64516375 -2.68261719 28.96801758 C-2.64459343 27.38052574 -2.60969679 25.79295552 -2.578125 24.20532227 C-2.25129468 7.97104742 -2.25129468 7.97104742 0 0 Z " fill="#214CB6" transform="translate(330,16)"/>
<path d="M0 0 C3 1 3 1 4.46484375 3.34375 C14.95673384 25.83034734 17.04876528 52.31657245 9 76 C7.47761352 80.07551055 5.85095803 84.06292123 4 88 C3.85691406 87.38640625 3.71382813 86.7728125 3.56640625 86.140625 C2.9729904 83.89792233 2.09269725 82.03970153 1 80 C1.495 79.505 1.495 79.505 2 79 C1.67402832 78.44731445 1.34805664 77.89462891 1.01220703 77.32519531 C-0.16480959 74.621407 -0.22949426 72.73650594 -0.1953125 69.796875 C-0.18886719 68.8171875 -0.18242187 67.8375 -0.17578125 66.828125 C-0.15902344 65.81234375 -0.14226562 64.7965625 -0.125 63.75 C-0.11597656 62.71875 -0.10695313 61.6875 -0.09765625 60.625 C-0.07412138 58.08323384 -0.03825131 55.54158728 0 53 C-0.33 59.93 -0.66 66.86 -1 74 C-1.66 73.67 -2.32 73.34 -3 73 C-3.18980158 48.96819973 -3.18980158 48.96819973 -2.5625 37.5625 C-2.52326416 36.81887207 -2.48402832 36.07524414 -2.44360352 35.30908203 C-2.13126663 30.26253326 -2.13126663 30.26253326 -1 28 C-0.84558791 25.89625004 -0.75007361 23.78804881 -0.68359375 21.6796875 C-0.64169922 20.42285156 -0.59980469 19.16601562 -0.55664062 17.87109375 C-0.51732422 16.55238281 -0.47800781 15.23367187 -0.4375 13.875 C-0.39430488 12.53514249 -0.35069027 11.19529844 -0.30664062 9.85546875 C-0.20029019 6.57042185 -0.09826192 3.28529719 0 0 Z " fill="#214CB8" transform="translate(423,17)"/>
<path d="M0 0 C3.17941742 1.03004884 3.96133244 1.92947189 5.59765625 4.9140625 C15.34930824 29.61824755 15.56745246 54.81595825 7 80 C6.03711583 82.01813133 5.04746256 84.02444383 4 86 C1.1557388 80.88032985 0.86201676 75.95397194 0.68359375 70.16796875 C0.64169922 68.87568359 0.59980469 67.58339844 0.55664062 66.25195312 C0.51683648 64.89713808 0.47712409 63.54232033 0.4375 62.1875 C0.39426277 60.81313895 0.35064688 59.43878976 0.30664062 58.06445312 C0.2007021 54.70973331 0.09862811 51.3549414 0 48 C-0.99 49.32 -1.98 50.64 -3 52 C-4.38030256 42.90312483 -3.68337384 34.16337755 -2.84863281 25.06396484 C-2.62360754 22.6098137 -2.41219176 20.15477627 -2.203125 17.69921875 C-2.06588175 16.12493202 -1.9278879 14.5507105 -1.7890625 12.9765625 C-1.72546539 12.24942047 -1.66186829 11.52227844 -1.59634399 10.77310181 C-1.25969508 7.12584843 -0.80492361 3.57462827 0 0 Z " fill="#213C9C" transform="translate(238,18)"/>
<path d="M0 0 C0.33 0.99 0.66 1.98 1 3 C-99.98 3 -200.96 3 -305 3 C-305 2.67 -305 2.34 -305 2 C-275.09861219 1.74213018 -245.19720142 1.48706022 -215.29575875 1.23563546 C-211.72549264 1.20561271 -208.15522673 1.17556729 -204.58496094 1.14550781 C-203.51927672 1.13653597 -203.51927672 1.13653597 -202.43206353 1.12738287 C-191.08961606 1.03183898 -179.74718492 0.93447985 -168.40475921 0.83638918 C-156.67268743 0.73497153 -144.94059913 0.6356447 -133.20849478 0.53806591 C-126.65827517 0.48353124 -120.10806525 0.42811964 -113.55787277 0.37039185 C-75.70410452 0.03762947 -37.85487365 -0.05699546 0 0 Z " fill="#AB84C7" transform="translate(397,509)"/>
<path d="M0 0 C0.33 0.66 0.66 1.32 1 2 C1.66 2 2.32 2 3 2 C10.20804859 24.52515183 8.51681409 47.85587202 1 70 C-1 68 -1 68 -1.20254517 65.177948 C-1.18033905 63.97437653 -1.15813293 62.77080505 -1.13525391 61.53076172 C-1.12579239 60.86722687 -1.11633087 60.20369202 -1.10658264 59.52005005 C-1.07285702 57.32298504 -1.0247562 55.12647889 -0.9765625 52.9296875 C-0.95040024 51.40798409 -0.92513284 49.88626505 -0.90072632 48.36453247 C-0.83402734 44.35630544 -0.75514532 40.3484064 -0.67376709 36.3404541 C-0.59289357 32.2518372 -0.52348455 28.1630277 -0.453125 24.07421875 C-0.31333507 16.04924535 -0.16068045 8.02458216 0 0 Z " fill="#203A9A" transform="translate(429,29)"/>
<path d="M0 0 C3 1 3 1 4.7668457 3.48364258 C6.41844063 8.19318955 5.66414696 11.45246704 4.73046875 16.26171875 C2.62748542 28.77192436 2.44295081 41.15314081 2.3125 53.8125 C2.27921755 56.07749226 2.24471848 58.34246697 2.20898438 60.60742188 C2.12536066 66.07149296 2.05651121 71.53558458 2 77 C1.01 77.495 1.01 77.495 0 78 C0 76.68 0 75.36 0 74 C-0.66 74 -1.32 74 -2 74 C-1.98952637 73.32122803 -1.97905273 72.64245605 -1.96826172 71.94311523 C-1.81081707 60.16964378 -1.72447111 48.75792693 -3.625 37.1171875 C-4.09276838 33.22886285 -3.80460763 29.70895529 -3.19140625 25.85546875 C-2.82272588 23.90735402 -2.82272588 23.90735402 -4 22 C-3.93724103 19.02674389 -3.5271799 16.07813548 -3.1875 13.125 C-3.10435547 12.30902344 -3.02121094 11.49304687 -2.93554688 10.65234375 C-2.84724609 9.86214844 -2.75894531 9.07195313 -2.66796875 8.2578125 C-2.58828857 7.5373877 -2.5086084 6.81696289 -2.42651367 6.07470703 C-1.9577784 3.79461984 -1.12197198 2.03012612 0 0 Z " fill="#2E6BD6" transform="translate(145,17)"/>
<path d="M0 0 C0.66 0 1.32 0 2 0 C6.17268583 6.44869629 6.17268583 6.44869629 5 12 C3.48544605 26.23182091 3.66640891 40.64517508 3.4375 54.9375 C3.39421807 57.47070892 3.35060102 60.00391214 3.30664062 62.53710938 C3.20056279 68.69134583 3.09862432 74.84563982 3 81 C2.01 81.495 2.01 81.495 1 82 C0.16293741 76.9283855 -0.13517405 72.02235861 -0.09765625 66.87890625 C-0.0962413 66.13414536 -0.09482635 65.38938446 -0.09336853 64.62205505 C-0.08781989 62.26882727 -0.07527733 59.9156985 -0.0625 57.5625 C-0.05747835 55.95638159 -0.05291661 54.35026168 -0.04882812 52.74414062 C-0.03786735 48.82938957 -0.02063884 44.91471151 0 41 C-0.99 41.66 -1.98 42.32 -3 43 C-2.90567238 38.32234683 -2.79941421 33.64516375 -2.68261719 28.96801758 C-2.64459343 27.38052574 -2.60969679 25.79295552 -2.578125 24.20532227 C-2.25129468 7.97104742 -2.25129468 7.97104742 0 0 Z " fill="#1C5ED1" transform="translate(330,16)"/>
<path d="M0 0 C1.875 0.625 1.875 0.625 4 2 C5.25 5.125 5.25 5.125 6 8 C5.01 7.67 4.02 7.34 3 7 C3 30.76 3 54.52 3 79 C2.01 79.495 2.01 79.495 1 80 C0.67 69.44 0.34 58.88 0 48 C-0.99 49.32 -1.98 50.64 -3 52 C-4.38030256 42.90312483 -3.68337384 34.16337755 -2.84863281 25.06396484 C-2.62360754 22.6098137 -2.41219176 20.15477627 -2.203125 17.69921875 C-2.06588175 16.12493202 -1.9278879 14.5507105 -1.7890625 12.9765625 C-1.72546539 12.24942047 -1.66186829 11.52227844 -1.59634399 10.77310181 C-1.25969508 7.12584843 -0.80492361 3.57462827 0 0 Z " fill="#1E5ACC" transform="translate(238,18)"/>
<path d="M0 0 C0.33 0.99 0.66 1.98 1 3 C1.66 3 2.32 3 3 3 C7.73450711 14.73334371 7.23921281 26.54817669 6.25 38.9375 C6.17628174 39.9083252 6.10256348 40.87915039 6.02661133 41.87939453 C5.48642961 47.74812277 4.32856147 52.58161659 2 58 C1.34 58 0.68 58 0 58 C0 38.86 0 19.72 0 0 Z " fill="#203A9A" transform="translate(337,34)"/>
<path d="M0 0 C0.66 0 1.32 0 2 0 C3.25664978 2.90600261 4 4.79604584 4 8 C3.34 8 2.68 8 2 8 C1.99120064 9.24574799 1.99120064 9.24574799 1.98222351 10.5166626 C1.92431193 18.34459522 1.8522442 26.17224205 1.76428509 33.999897 C1.71956362 38.02416226 1.68031162 42.04832586 1.65356445 46.07275391 C1.62754887 49.95681234 1.58715941 53.84047997 1.53681374 57.72429657 C1.52013309 59.20579924 1.50862625 60.68736951 1.50238609 62.16895294 C1.49275755 64.24488764 1.46471603 66.31981991 1.43237305 68.39550781 C1.42126999 69.57687317 1.41016693 70.75823853 1.39872742 71.97540283 C0.96901508 75.23504006 0.20844762 76.62026746 -2 79 C-2 77.35 -2 75.7 -2 74 C-2.66 74 -3.32 74 -4 74 C-5.125 70.25 -5.125 70.25 -4 68 C-3.89197317 66.517697 -3.84376573 65.03081063 -3.82641602 63.54467773 C-3.81292618 62.61868271 -3.79943634 61.69268768 -3.78553772 60.7386322 C-3.77509933 59.73046951 -3.76466095 58.72230682 -3.75390625 57.68359375 C-3.72090674 55.53450207 -3.68769634 53.38541362 -3.65429688 51.23632812 C-3.60734788 47.86013565 -3.56304831 44.48394987 -3.52319336 41.10766602 C-3.09079247 6.18158495 -3.09079247 6.18158495 0 0 Z " fill="#244FB9" transform="translate(150,26)"/>
<path d="M0 0 C1.01936725 3.05810176 1.00186825 4.49801207 0.625 7.625 C0.53476562 8.42164063 0.44453125 9.21828125 0.3515625 10.0390625 C0 12 0 12 -1 13 C-2.99964982 13.08758003 -5.0023611 13.10696576 -7.00390625 13.09765625 C-8.21884766 13.09443359 -9.43378906 13.09121094 -10.68554688 13.08789062 C-11.96494141 13.07951172 -13.24433594 13.07113281 -14.5625 13.0625 C-15.84576172 13.05798828 -17.12902344 13.05347656 -18.45117188 13.04882812 C-21.63416022 13.03699545 -24.81705762 13.02051068 -28 13 C-27.67 10.69 -27.34 8.38 -27 6 C-25.23358317 5.3012307 -23.46167336 4.61633417 -21.6875 3.9375 C-20.20830078 3.36322266 -20.20830078 3.36322266 -18.69921875 2.77734375 C-16 2 -16 2 -13 3 C-11.65737935 2.70630173 -10.32303717 2.3721042 -9 2 C-8.01 2 -7.02 2 -6 2 C-1.875 0 -1.875 0 0 0 Z " fill="#6E99E5" transform="translate(292,48)"/>
<path d="M0 0 C1.94921875 0.83984375 1.94921875 0.83984375 4 2 C4.8125 4.5625 4.8125 4.5625 5 7 C4.67 7.33 4.34 7.66 4 8 C3.87655973 9.87096111 3.82207606 11.74650928 3.79467773 13.62133789 C3.77473251 14.82250748 3.75478729 16.02367706 3.73423767 17.26124573 C3.70916893 19.22214394 3.70916893 19.22214394 3.68359375 21.22265625 C3.66303042 22.56644847 3.64203412 23.91023412 3.62062073 25.25401306 C3.56533581 28.79674987 3.51595502 32.33954567 3.46777344 35.88238525 C3.41760513 39.4952115 3.36189475 43.10795172 3.30664062 46.72070312 C3.19898063 53.81372747 3.0975532 60.90682888 3 68 C3.66 68 4.32 68 5 68 C4.54917531 69.46067199 4.08906463 70.91848032 3.625 72.375 C3.36976563 73.18710938 3.11453125 73.99921875 2.8515625 74.8359375 C2 77 2 77 0 79 C-1.02292642 74.81517013 -1.08765623 70.93935631 -1.02172852 66.6394043 C-1.01212097 65.91690994 -1.00251343 65.19441559 -0.99261475 64.45002747 C-0.95977454 62.07465403 -0.91938586 59.69947324 -0.87890625 57.32421875 C-0.85459047 55.67227344 -0.83074765 54.02032111 -0.80735779 52.36836243 C-0.74466192 48.02985608 -0.67555454 43.69147479 -0.60510254 39.35308838 C-0.53428782 34.92229892 -0.46954959 30.49142112 -0.40429688 26.06054688 C-0.27547151 17.37360006 -0.13987129 8.68677595 0 0 Z " fill="#224FBA" transform="translate(241,25)"/>
<path d="M0 0 C0.99 0.33 1.98 0.66 3 1 C4.1875 4.0625 4.1875 4.0625 5 7 C4.34 7 3.68 7 3 7 C3.02320313 8.2375 3.04640625 9.475 3.0703125 10.75 C3.19897453 20.96716136 2.91487528 31.06449933 2.0625 41.25 C1.93222412 42.82974609 1.93222412 42.82974609 1.79931641 44.44140625 C1.1343284 51.8656716 1.1343284 51.8656716 0 53 C-0.15686249 54.55948542 -0.25076639 56.12542668 -0.31640625 57.69140625 C-0.35830078 58.63564453 -0.40019531 59.57988281 -0.44335938 60.55273438 C-0.48267578 61.54595703 -0.52199219 62.53917969 -0.5625 63.5625 C-0.60568359 64.55958984 -0.64886719 65.55667969 -0.69335938 66.58398438 C-0.79980298 69.0558415 -0.90181928 71.5278031 -1 74 C-1.66 73.67 -2.32 73.34 -3 73 C-3.18980158 48.96819973 -3.18980158 48.96819973 -2.5625 37.5625 C-2.52326416 36.81887207 -2.48402832 36.07524414 -2.44360352 35.30908203 C-2.13126663 30.26253326 -2.13126663 30.26253326 -1 28 C-0.84558791 25.89625004 -0.75007361 23.78804881 -0.68359375 21.6796875 C-0.64169922 20.42285156 -0.59980469 19.16601562 -0.55664062 17.87109375 C-0.51732422 16.55238281 -0.47800781 15.23367187 -0.4375 13.875 C-0.39430488 12.53514249 -0.35069027 11.19529844 -0.30664062 9.85546875 C-0.20029019 6.57042185 -0.09826192 3.28529719 0 0 Z " fill="#3065CF" transform="translate(423,17)"/>
<path d="M0 0 C1.51400391 0.01740234 1.51400391 0.01740234 3.05859375 0.03515625 C4.07050781 0.04417969 5.08242188 0.05320313 6.125 0.0625 C7.29869141 0.07990234 7.29869141 0.07990234 8.49609375 0.09765625 C8.49609375 0.75765625 8.49609375 1.41765625 8.49609375 2.09765625 C9.81609375 1.76765625 11.13609375 1.43765625 12.49609375 1.09765625 C12.49609375 2.08765625 12.49609375 3.07765625 12.49609375 4.09765625 C7.81502089 8.26922458 2.58928515 10.74361372 -3.50390625 12.09765625 C-4.79774121 12.46510538 -6.08948054 12.84002179 -7.37890625 13.22265625 C-10.50390625 14.09765625 -10.50390625 14.09765625 -11.50390625 14.09765625 C-11.53102691 12.66026112 -11.55035692 11.22271762 -11.56640625 9.78515625 C-11.57800781 8.98464844 -11.58960938 8.18414062 -11.6015625 7.359375 C-11.50390625 5.09765625 -11.50390625 5.09765625 -10.50390625 2.09765625 C-9.36953125 1.95328125 -8.23515625 1.80890625 -7.06640625 1.66015625 C-3.7864409 1.14226698 -3.04517779 0.11876668 0 0 Z " fill="#749BE5" transform="translate(368.50390625,42.90234375)"/>
<path d="M0 0 C0.66 0.33 1.32 0.66 2 1 C3.9873375 1.11577145 3.9873375 1.11577145 5.6875 0.375 C8 0 8 0 11.3125 1.0625 C15.8509554 2.21634459 17.69700572 1.58069178 22 0 C21.67 2.31 21.34 4.62 21 7 C20.67 6.34 20.34 5.68 20 5 C19.39671875 5.28875 18.7934375 5.5775 18.171875 5.875 C17.37265625 6.24625 16.5734375 6.6175 15.75 7 C14.56664062 7.556875 14.56664062 7.556875 13.359375 8.125 C11 9 11 9 7 9 C6.67 8.34 6.34 7.68 6 7 C5.39671875 7.28875 4.7934375 7.5775 4.171875 7.875 C3.37265625 8.24625 2.5734375 8.6175 1.75 9 C0.56664062 9.556875 0.56664062 9.556875 -0.640625 10.125 C-3 11 -3 11 -7 11 C-7.33 11.66 -7.66 12.32 -8 13 C-7.67 9.04 -7.34 5.08 -7 1 C-5.02 1 -3.04 1 -1 1 C-0.67 0.67 -0.34 0.34 0 0 Z " fill="#7EADF0" transform="translate(272,43)"/>
<path d="M0 0 C0.80688405 3.94476647 1.00000429 5.99998285 0 10 C-8.91 10 -17.82 10 -27 10 C-26.67 8.35 -26.34 6.7 -26 5 C-20.5564552 3.61751243 -15.65781691 2.77812483 -10 3 C-5.81904531 3 -3.52012598 0 0 0 Z " fill="#6081CC" transform="translate(106,51)"/>
<path d="M0 0 C0.99 0.33 1.98 0.66 3 1 C2.88184693 5.23603463 2.75760568 9.47183326 2.62768555 13.70751953 C2.58433769 15.1488762 2.54266248 16.59028418 2.50268555 18.03173828 C2.44497912 20.10204541 2.38128629 22.17209432 2.31640625 24.2421875 C2.26141968 26.11173096 2.26141968 26.11173096 2.20532227 28.01904297 C2 31 2 31 1 33 C0.76970044 35.37123246 0.58880058 37.74741943 0.4375 40.125 C0.35371094 41.40632813 0.26992188 42.68765625 0.18359375 44.0078125 C0.12300781 44.99523438 0.06242187 45.98265625 0 47 C-2.13586678 43.79619983 -2.23132175 42.98060033 -2.125 39.3125 C-2.10695313 38.50425781 -2.08890625 37.69601563 -2.0703125 36.86328125 C-2.03550781 35.94095703 -2.03550781 35.94095703 -2 35 C-2.99 35 -3.98 35 -5 35 C-5.16393065 30.0820806 -5.19121995 27.3824399 -3 23 C-2.61723469 20.59049668 -2.61723469 20.59049668 -2.5 18 C-2.04904966 11.92446909 -1.07715442 5.99232505 0 0 Z " fill="#2E7BE6" transform="translate(421,14)"/>
<path d="M0 0 C0.33 0 0.66 0 1 0 C1 2.97 1 5.94 1 9 C-7.91 9 -16.82 9 -26 9 C-26 7.68 -26 6.36 -26 5 C-21.1824527 3.98318162 -16.39514694 2.99540278 -11.5 2.4375 C-8.15600943 2.21667976 -8.15600943 2.21667976 -6 1 C-6 1.66 -6 2.32 -6 3 C-2.75016865 1.91215032 -2.75016865 1.91215032 0 0 Z " fill="#5A86DC" transform="translate(198,51)"/>
<path d="M0 0 C3 1 3 1 4.1875 3.0625 C4.455625 3.701875 4.72375 4.34125 5 5 C4.34 5 3.68 5 3 5 C2.9498877 5.9379541 2.89977539 6.8759082 2.84814453 7.84228516 C2.65716475 11.34271502 2.45874667 14.842562 2.25537109 18.34228516 C2.16908002 19.85318685 2.08570336 21.36425806 2.00537109 22.87548828 C1.88896801 25.0555313 1.76188011 27.23473695 1.6328125 29.4140625 C1.55949707 30.7232666 1.48618164 32.0324707 1.41064453 33.38134766 C1.01666549 36.85314154 0.23805991 39.74403461 -1 43 C-1.66 42.67 -2.32 42.34 -3 42 C-4.47125879 35.01152073 -3.97300152 28.38266084 -2.61328125 21.4453125 C-1.83341404 17.06414766 -1.34815149 12.67329548 -0.875 8.25 C-0.78758545 7.43837402 -0.7001709 6.62674805 -0.61010742 5.79052734 C-0.40402898 3.86063895 -0.20161535 1.93035976 0 0 Z " fill="#4D90EB" transform="translate(235,13)"/>
<path d="M0 0 C1.32 0.66 2.64 1.32 4 2 C3.67 2.66 3.34 3.32 3 4 C2.34 3.67 1.68 3.34 1 3 C1.0314209 4.96005981 1.0314209 4.96005981 1.06347656 6.9597168 C1.13595553 11.81442274 1.18182875 16.66908098 1.21972656 21.52416992 C1.23982397 23.62418667 1.26710666 25.72414758 1.30175781 27.82397461 C1.3503577 30.84502958 1.37298762 33.86534377 1.390625 36.88671875 C1.41127014 37.82335861 1.43191528 38.75999847 1.45318604 39.72502136 C1.4546943 44.12084385 1.41600986 46.35636873 -1.02441406 50.13208008 C-1.67635742 50.74849365 -2.32830078 51.36490723 -3 52 C-4.38030256 42.90312483 -3.68337384 34.16337755 -2.84863281 25.06396484 C-2.62360754 22.6098137 -2.41219176 20.15477627 -2.203125 17.69921875 C-2.06588175 16.12493202 -1.9278879 14.5507105 -1.7890625 12.9765625 C-1.72546539 12.24942047 -1.66186829 11.52227844 -1.59634399 10.77310181 C-1.25969508 7.12584843 -0.80492361 3.57462827 0 0 Z " fill="#2E73DE" transform="translate(238,18)"/>
<path d="M0 0 C1.12067871 0.01047363 2.24135742 0.02094727 3.39599609 0.03173828 C5.21357422 0.04140625 5.21357422 0.04140625 7.06787109 0.05126953 C8.33888672 0.06802734 9.60990234 0.08478516 10.91943359 0.10205078 C12.19818359 0.11107422 13.47693359 0.12009766 14.79443359 0.12939453 C17.96128526 0.15302775 21.12776783 0.18597449 24.29443359 0.22705078 C24.62443359 1.87705078 24.95443359 3.52705078 25.29443359 5.22705078 C22.44769604 6.65041956 20.14828012 6.23463915 16.97412109 6.10595703 C15.71728516 6.05761719 14.46044922 6.00927734 13.16552734 5.95947266 C11.84681641 5.90339844 10.52810547 5.84732422 9.16943359 5.78955078 C7.82960921 5.73632665 6.48976551 5.68358627 5.14990234 5.63134766 C1.86452472 5.5013507 -1.42057318 5.36637392 -4.70556641 5.22705078 C-4.70556641 1.25525219 -3.97741216 0.33378391 0 0 Z " fill="#1E44AF" transform="translate(207.70556640625,110.77294921875)"/>
<path d="M0 0 C0 3 0 3 -1.35546875 4.75390625 C-2.26232422 5.64916016 -2.26232422 5.64916016 -3.1875 6.5625 C-3.77917969 7.16191406 -4.37085938 7.76132813 -4.98046875 8.37890625 C-9.22573765 11.78661726 -13.08872475 12.27520035 -18.4375 12.25 C-20.07525391 12.25773438 -20.07525391 12.25773438 -21.74609375 12.265625 C-27.564266 11.79067216 -31.79348153 10.08279734 -36 6 C-36 5.01 -36 4.02 -36 3 C-35.09507812 3.30744141 -35.09507812 3.30744141 -34.171875 3.62109375 C-32.97304687 4.02521484 -32.97304687 4.02521484 -31.75 4.4375 C-30.96109375 4.70433594 -30.1721875 4.97117187 -29.359375 5.24609375 C-20.02849224 8.22765066 -12.84251866 7.10545509 -4 3 C-2.6365508 2.04146776 -1.29167507 1.05325841 0 0 Z " fill="#FADD6A" transform="translate(230,118)"/>
<path d="M0 0 C0.33 0 0.66 0 1 0 C1 13.2 1 26.4 1 40 C0.01 40.495 0.01 40.495 -1 41 C-1 39.68 -1 38.36 -1 37 C-1.66 37 -2.32 37 -3 37 C-2.99476318 36.2793335 -2.98952637 35.55866699 -2.98413086 34.81616211 C-2.96323125 31.52328375 -2.95029869 28.23041941 -2.9375 24.9375 C-2.92912109 23.80376953 -2.92074219 22.67003906 -2.91210938 21.50195312 C-2.86081537 14.66504407 -2.86081537 14.66504407 -3.56640625 7.87890625 C-4 5 -4 5 -3 2 C-2.01 2 -1.02 2 0 2 C0 1.34 0 0.68 0 0 Z " fill="#1A60D6" transform="translate(146,54)"/>
<path d="M0 0 C0.639375 0.268125 1.27875 0.53625 1.9375 0.8125 C3.4534375 1.4003125 3.4534375 1.4003125 5 2 C6.01707031 2.39638672 6.01707031 2.39638672 7.0546875 2.80078125 C17.92895882 6.77045469 26.63725004 4.49052498 37 0 C35.06061579 4.24240296 32.53604157 6.73076086 28.578125 9.046875 C22.72557162 11.21054625 15.6349488 11.2261728 9.71875 9.23046875 C7.9375 8.25 7.9375 8.25 5 6 C4.030625 5.29875 3.06125 4.5975 2.0625 3.875 C1.381875 3.25625 0.70125 2.6375 0 2 C0 1.34 0 0.68 0 0 Z " fill="#F9DD6A" transform="translate(100,120)"/>
<path d="M0 0 C0.92941406 0.3609375 1.85882813 0.721875 2.81640625 1.09375 C4.06487858 1.5631005 5.31358949 2.03181673 6.5625 2.5 C7.78066406 2.9640625 8.99882812 3.428125 10.25390625 3.90625 C15.88487681 5.550329 20.57249159 5.4282262 26.125 3.625 C26.970625 3.35300781 27.81625 3.08101563 28.6875 2.80078125 C31.16047035 1.94443172 33.59822257 1.04077022 36 0 C34.26364608 4.41980998 31.19138617 6.65921767 27.21875 9.08984375 C21.62111064 11.38605849 14.61681971 10.91537646 8.99609375 8.94921875 C5.57734426 7.26223756 2.70391683 5.70391683 0 3 C0 2.01 0 1.02 0 0 Z " fill="#F9DD69" transform="translate(286,120)"/>
<path d="M0 0 C0.66 0 1.32 0 2 0 C2.66 1.65 3.32 3.3 4 5 C3.67 5 3.34 5 3 5 C2.25187828 9.88407923 1.91614686 14.63966749 1.82421875 19.58203125 C1.80037109 20.76087891 1.77652344 21.93972656 1.75195312 23.15429688 C1.70864348 25.61244732 1.67758139 28.0708413 1.65820312 30.52929688 C1.63048828 31.70169922 1.60277344 32.87410156 1.57421875 34.08203125 C1.55963623 35.14655518 1.54505371 36.2110791 1.5300293 37.30786133 C1 40 1 40 -1.03588867 41.86987305 C-1.68404541 42.24281494 -2.33220215 42.61575684 -3 43 C-2.90567238 38.32234683 -2.79941421 33.64516375 -2.68261719 28.96801758 C-2.64459343 27.38052574 -2.60969679 25.79295552 -2.578125 24.20532227 C-2.25129468 7.97104742 -2.25129468 7.97104742 0 0 Z " fill="#2C75E2" transform="translate(330,16)"/>
<path d="M0 0 C0.98484375 0.10183594 1.9696875 0.20367187 2.984375 0.30859375 C4.10585938 0.43427734 4.10585938 0.43427734 5.25 0.5625 C4.49725967 5.078942 3.07365936 7.90835259 0.25 11.5625 C-0.74 11.8925 -1.73 12.2225 -2.75 12.5625 C-5.39752004 9.98465154 -7.69432065 7.64601902 -9.75 4.5625 C-9.75 3.2425 -9.75 1.9225 -9.75 0.5625 C-6.33860997 -0.53401823 -3.54344419 -0.37965473 0 0 Z " fill="#F7CD29" transform="translate(398.75,86.4375)"/>
<path d="M0 0 C0.33 0 0.66 0 1 0 C1.06948318 8.03195042 1.12280239 16.06377545 1.15543652 24.09595203 C1.17109859 27.82555055 1.19234629 31.55494358 1.22631836 35.28442383 C1.25889319 38.88299774 1.27684894 42.48137389 1.28463173 46.08008385 C1.29017868 47.45364178 1.30101052 48.82718878 1.31719017 50.20066261 C1.33893676 52.12300707 1.34022517 54.04555015 1.34057617 55.96801758 C1.34723801 57.06277908 1.35389984 58.15754059 1.36076355 59.28547668 C1 62 1 62 -0.52128601 63.8769989 C-1.25324944 64.43288445 -1.25324944 64.43288445 -2 65 C-3.125 61.25 -3.125 61.25 -2 59 C-1.88681892 57.48076522 -1.83337763 55.95686754 -1.81054688 54.43359375 C-1.79382935 53.48500488 -1.77711182 52.53641602 -1.7598877 51.55908203 C-1.74631226 50.52895996 -1.73273682 49.49883789 -1.71875 48.4375 C-1.70034058 47.37644043 -1.68193115 46.31538086 -1.66296387 45.22216797 C-1.60409178 41.81483628 -1.55140242 38.40745205 -1.5 35 C-1.44838825 31.62111862 -1.3952738 28.24229944 -1.33703613 24.86352539 C-1.30079973 22.75991101 -1.26827916 20.65622814 -1.2401123 18.55249023 C-1.13313632 12.32107473 -0.72682653 6.19013217 0 0 Z " fill="#1F56C6" transform="translate(148,35)"/>
<path d="M0 0 C1.08410156 0.00257812 2.16820312 0.00515625 3.28515625 0.0078125 C4.90744141 0.00394531 4.90744141 0.00394531 6.5625 0 C9.34765625 0.1328125 9.34765625 0.1328125 11.34765625 1.1328125 C10.90296296 6.17266981 8.63422263 8.50916238 5.34765625 12.1328125 C1.5396318 10.6368029 -0.34658932 8.47218099 -2.65234375 5.1328125 C-3.46484375 2.8828125 -3.46484375 2.8828125 -3.65234375 1.1328125 C-2.65234375 0.1328125 -2.65234375 0.1328125 0 0 Z " fill="#F5CD29" transform="translate(299.65234375,86.8671875)"/>
<path d="M0 0 C2.59150321 3.9634755 1.89057679 4.65653925 1 10 C-7.91 10 -16.82 10 -26 10 C-25.67 9.01 -25.34 8.02 -25 7 C-24.14341797 7.08701172 -24.14341797 7.08701172 -23.26953125 7.17578125 C-15.43078333 7.61195959 -9.02992551 5.37191194 -2 2 C-1.34 1.34 -0.68 0.68 0 0 Z " fill="#6184CA" transform="translate(383,51)"/>
<path d="M0 0 C0.87527344 -0.00257812 1.75054687 -0.00515625 2.65234375 -0.0078125 C5.0625 0.125 5.0625 0.125 8.0625 1.125 C6.78528474 6.11775057 4.88919043 8.70111908 1.0625 12.125 C-3.14823233 10.62116703 -4.76987117 7.91835044 -6.9375 4.125 C-6.9375 3.135 -6.9375 2.145 -6.9375 1.125 C-4.46371876 -0.11189062 -2.75834683 -0.00810087 0 0 Z " fill="#F5CD29" transform="translate(210.9375,86.875)"/>
<path d="M0 0 C0.99 0.33 1.98 0.66 3 1 C4.0700692 4.2102076 3.95552231 4.86178794 3.1015625 7.96484375 C1.77067665 13.48410567 1.55472359 18.90495129 1.375 24.5625 C1.33632813 25.57119141 1.29765625 26.57988281 1.2578125 27.61914062 C1.16453797 30.0792564 1.07874484 32.53938366 1 35 C0.01 35 -0.98 35 -2 35 C-2.90711168 29.78922312 -3.04649997 25.01872913 -2.6875 19.75 C-2.64117432 19.01144775 -2.59484863 18.27289551 -2.54711914 17.51196289 C-2.13347845 11.58483377 -1.29103961 5.80341108 0 0 Z " fill="#5597EE" transform="translate(327,12)"/>
<path d="M0 0 C0.87527344 -0.00257812 1.75054687 -0.00515625 2.65234375 -0.0078125 C5.0625 0.125 5.0625 0.125 8.0625 1.125 C7.4461103 5.13153305 5.47677274 7.92963901 3.0625 11.125 C2.0725 11.455 1.0825 11.785 0.0625 12.125 C-3.76419043 8.70111908 -5.66028474 6.11775057 -6.9375 1.125 C-4.46371876 -0.11189062 -2.75834683 -0.00810087 0 0 Z " fill="#F6CD28" transform="translate(117.9375,86.875)"/>
<path d="M0 0 C0.33 0.66 0.66 1.32 1 2 C1.99 2 2.98 2 4 2 C1.54748222 5.67877667 0.14258657 5.78159219 -4 7 C-4.78375 7.37125 -5.5675 7.7425 -6.375 8.125 C-10.02343543 9.34114514 -13.1628306 9.13007354 -17 9 C-17 7.02 -17 5.04 -17 3 C-11.17521449 -0.03901852 -6.51791392 -0.3540919 0 0 Z " fill="#9FC7F8" transform="translate(189,43)"/>
<path d="M0 0 C0.99 0.33 1.98 0.66 3 1 C3 1.66 3 2.32 3 3 C2.34 3 1.68 3 1 3 C1.02320313 3.75539063 1.04640625 4.51078125 1.0703125 5.2890625 C1.25587487 16.60836719 0.14911678 27.75026896 -1 39 C-1.66 39 -2.32 39 -3 39 C-4.32282148 34.59059508 -3.74711619 30.68552842 -3.15625 26.20703125 C-2.80876745 23.95808074 -2.80876745 23.95808074 -4 22 C-3.93724103 19.02674389 -3.5271799 16.07813548 -3.1875 13.125 C-3.10435547 12.30902344 -3.02121094 11.49304687 -2.93554688 10.65234375 C-2.84724609 9.86214844 -2.75894531 9.07195313 -2.66796875 8.2578125 C-2.58828857 7.5373877 -2.5086084 6.81696289 -2.42651367 6.07470703 C-1.9577784 3.79461984 -1.12197198 2.03012612 0 0 Z " fill="#3E7CE0" transform="translate(145,17)"/>
<path d="M0 0 C1.09054688 0.02320313 2.18109375 0.04640625 3.3046875 0.0703125 C4.40039062 0.08835938 5.49609375 0.10640625 6.625 0.125 C7.46804687 0.14820313 8.31109375 0.17140625 9.1796875 0.1953125 C6.09295853 4.82540595 2.42473018 7.44696494 -2.8203125 9.1953125 C-3.4803125 8.8653125 -4.1403125 8.5353125 -4.8203125 8.1953125 C-7.1697178 8.80291732 -9.50560338 9.46660778 -11.8203125 10.1953125 C-11.4903125 7.5553125 -11.1603125 4.9153125 -10.8203125 2.1953125 C-8.8203125 2.1953125 -6.8203125 2.1953125 -4.8203125 2.1953125 C-2.8203125 0.1953125 -2.8203125 0.1953125 0 0 Z M-1.8203125 2.1953125 C-2.1503125 2.8553125 -2.4803125 3.5153125 -2.8203125 4.1953125 C-2.1603125 4.1953125 -1.5003125 4.1953125 -0.8203125 4.1953125 C-1.1503125 3.5353125 -1.4803125 2.8753125 -1.8203125 2.1953125 Z " fill="#8FBEF7" transform="translate(90.8203125,42.8046875)"/>
<path d="M0 0 C1.32 1.32 2.64 2.64 4 4 C3 6 3 6 1 9 C0.53020345 11.10348179 0.53020345 11.10348179 0.33203125 13.4140625 C0.24373047 14.25710937 0.15542969 15.10015625 0.06445312 15.96875 C-0.01869141 16.8453125 -0.10183594 17.721875 -0.1875 18.625 C-0.28224609 19.50929688 -0.37699219 20.39359375 -0.47460938 21.3046875 C-0.82588825 24.64686714 -0.82588825 24.64686714 -1 28 C-0.67 28.33 -0.34 28.66 0 29 C-0.28730055 31.33944736 -0.61936779 33.6739143 -1 36 C-1.99 36 -2.98 36 -4 36 C-4.22126178 33.54220024 -4.42750395 31.08472352 -4.625 28.625 C-4.68945312 27.92632812 -4.75390625 27.22765625 -4.8203125 26.5078125 C-4.96119739 24.67630889 -4.98761659 22.83687252 -5 21 C-4.34 20.34 -3.68 19.68 -3 19 C-2.55645086 17.08688398 -2.55645086 17.08688398 -2.40234375 14.90234375 C-2.32306641 14.10119141 -2.24378906 13.30003906 -2.16210938 12.47460938 C-2.08798828 11.63736328 -2.01386719 10.80011719 -1.9375 9.9375 C-1.11993243 1.11993243 -1.11993243 1.11993243 0 0 Z " fill="#4593F1" transform="translate(143,12)"/>
<path d="M0 0 C0.33 0 0.66 0 1 0 C1.02887814 3.47914941 1.04675687 6.95826831 1.0625 10.4375 C1.07087891 11.43072266 1.07925781 12.42394531 1.08789062 13.44726562 C1.09111328 14.39150391 1.09433594 15.33574219 1.09765625 16.30859375 C1.10289307 17.18314209 1.10812988 18.05769043 1.11352539 18.95874023 C1 21 1 21 0 22 C-0.15686249 23.55948542 -0.25076639 25.12542668 -0.31640625 26.69140625 C-0.35830078 27.63564453 -0.40019531 28.57988281 -0.44335938 29.55273438 C-0.48267578 30.54595703 -0.52199219 31.53917969 -0.5625 32.5625 C-0.60568359 33.55958984 -0.64886719 34.55667969 -0.69335938 35.58398438 C-0.79980298 38.0558415 -0.90181928 40.5278031 -1 43 C-1.66 42.67 -2.32 42.34 -3 42 C-3.05906707 38.08339894 -3.09394858 34.16691543 -3.125 30.25 C-3.14175781 29.15816406 -3.15851563 28.06632812 -3.17578125 26.94140625 C-3.22028143 19.42087566 -2.47745368 12.36959877 -1 5 C-0.81324707 4.06188477 -0.62649414 3.12376953 -0.43408203 2.15722656 C-0.29083496 1.4453418 -0.14758789 0.73345703 0 0 Z " fill="#186CE1" transform="translate(423,48)"/>
<path d="M0 0 C0.33 0 0.66 0 1 0 C1 16.5 1 33 1 50 C0.01 50.495 0.01 50.495 -1 51 C-2.31233653 47.08517967 -2.04676301 43.1874166 -1.9140625 39.12109375 C-1.89282318 38.35378433 -1.87158386 37.58647491 -1.84970093 36.7959137 C-1.80349796 35.17107506 -1.75457457 33.54631182 -1.703125 31.92163086 C-1.62604366 29.47068512 -1.55839106 27.01962036 -1.4921875 24.56835938 C-1.25672694 16.34764626 -0.91549412 8.17924712 0 0 Z " fill="#1C5BCE" transform="translate(425,45)"/>
<path d="M0 0 C0.66 0.66 1.32 1.32 2 2 C0.58994275 3.15395711 -0.82833458 4.29787466 -2.25 5.4375 C-3.43335938 6.39462891 -3.43335938 6.39462891 -4.640625 7.37109375 C-6.89694311 8.92884979 -8.35018377 9.51261308 -11 10 C-11.763125 10.33 -12.52625 10.66 -13.3125 11 C-16.51910877 12.19315675 -19.61124193 12.60132258 -23 13 C-22.67 11.35 -22.34 9.7 -22 8 C-18.12315913 6.80712589 -15.08378077 6 -11 6 C-8.91845497 4.96785959 -8.91845497 4.96785959 -6.9375 3.5625 C-4.5348522 1.94382557 -2.78312875 0.92770958 0 0 Z " fill="#7099E3" transform="translate(102,44)"/>
<path d="M0 0 C1.98 0.99 1.98 0.99 4 2 C5.65574135 6.96722406 4.34486832 11.93740671 3.6875 17.0625 C3.55666016 18.17689453 3.42582031 19.29128906 3.29101562 20.43945312 C3.15759766 21.50228516 3.02417969 22.56511719 2.88671875 23.66015625 C2.76514404 24.63605713 2.64356934 25.61195801 2.51831055 26.61743164 C2 29 2 29 0 31 C0 20.77 0 10.54 0 0 Z " fill="#599EF2" transform="translate(231,8)"/>
<path d="M0 0 C0.33 0 0.66 0 1 0 C1 2.97 1 5.94 1 9 C-7.58 9 -16.16 9 -25 9 C-25 8.34 -25 7.68 -25 7 C-24.35675781 7.06960937 -23.71351563 7.13921875 -23.05078125 7.2109375 C-14.53352485 7.72124388 -8.38829734 5.07824975 -1 1 C-0.67 0.67 -0.34 0.34 0 0 Z " fill="#4E77D3" transform="translate(290,51)"/>
<path d="M0 0 C1.65 1.32 3.3 2.64 5 4 C5.33984375 7.4609375 5.33984375 7.4609375 4.9375 11.375 C4.82277344 12.66148438 4.70804688 13.94796875 4.58984375 15.2734375 C4.04504658 18.71540108 3.21539392 21.74213912 2 25 C1.34 25 0.68 25 0 25 C0 16.75 0 8.5 0 0 Z " fill="#599FF2" transform="translate(138,7)"/>
<path d="M0 0 C0.33 0.66 0.66 1.32 1 2 C1.66 2 2.32 2 3 2 C3 2.99 3 3.98 3 5 C2.34 5 1.68 5 1 5 C1 23.81 1 42.62 1 62 C1.66 62 2.32 62 3 62 C2.34 64.64 1.68 67.28 1 70 C-1 68 -1 68 -1.20254517 65.177948 C-1.18033905 63.97437653 -1.15813293 62.77080505 -1.13525391 61.53076172 C-1.12579239 60.86722687 -1.11633087 60.20369202 -1.10658264 59.52005005 C-1.07285702 57.32298504 -1.0247562 55.12647889 -0.9765625 52.9296875 C-0.95040024 51.40798409 -0.92513284 49.88626505 -0.90072632 48.36453247 C-0.83402734 44.35630544 -0.75514532 40.3484064 -0.67376709 36.3404541 C-0.59289357 32.2518372 -0.52348455 28.1630277 -0.453125 24.07421875 C-0.31333507 16.04924535 -0.16068045 8.02458216 0 0 Z " fill="#2241A4" transform="translate(429,29)"/>
<path d="M0 0 C0.66 0 1.32 0 2 0 C2.33 1.98 2.66 3.96 3 6 C2.34 6 1.68 6 1 6 C0.67 27.45 0.34 48.9 0 71 C-0.33 71 -0.66 71 -1 71 C-1.02312545 61.89040835 -1.04091612 52.78082674 -1.05181217 43.6712122 C-1.05704056 39.44168629 -1.0641374 35.2121804 -1.07543945 30.98266602 C-1.08626991 26.90431457 -1.09227717 22.82598243 -1.09487724 18.74761772 C-1.09673121 17.18822361 -1.10035127 15.6288306 -1.10573006 14.06944466 C-1.11294262 11.89270838 -1.11399085 9.71605286 -1.11352539 7.53930664 C-1.115746 6.29798477 -1.11796661 5.0566629 -1.12025452 3.77772522 C-1 1 -1 1 0 0 Z " fill="#2247B0" transform="translate(151,28)"/>
<path d="M0 0 C0.66 0 1.32 0 2 0 C1.75885216 0.80555328 1.75885216 0.80555328 1.51283264 1.62738037 C0.90277997 4.44978834 0.83715593 7.07339676 0.79467773 9.96191406 C0.77473251 11.16285706 0.75478729 12.36380005 0.73423767 13.60113525 C0.71752518 14.89291687 0.70081268 16.18469849 0.68359375 17.515625 C0.66301037 18.85512921 0.64201354 20.19462713 0.62062073 21.53411865 C0.56554291 25.05215341 0.51607094 28.5702454 0.46777344 32.08837891 C0.41745375 35.68136664 0.36182244 39.27427173 0.30664062 42.8671875 C0.199234 49.91138655 0.09775051 56.9556598 0 64 C0.66 64 1.32 64 2 64 C1.67 65.65 1.34 67.3 1 69 C0.34 69 -0.32 69 -1 69 C-1.02315806 60.44648426 -1.04093279 51.89298159 -1.05181217 43.33944225 C-1.0570334 39.36780376 -1.0641173 35.3961867 -1.07543945 31.42456055 C-1.08629527 27.59258628 -1.09228257 23.76063264 -1.09487724 19.92864418 C-1.09672662 18.46579984 -1.10033792 17.00295665 -1.10573006 15.54012108 C-1.11297622 13.49311243 -1.11398943 11.44618931 -1.11352539 9.39916992 C-1.115746 8.23334885 -1.11796661 7.06752777 -1.12025452 5.86637878 C-1 3 -1 3 0 0 Z " fill="#2245AC" transform="translate(244,29)"/>
<path d="M0 0 C1.51400391 0.01740234 1.51400391 0.01740234 3.05859375 0.03515625 C4.07050781 0.04417969 5.08242188 0.05320313 6.125 0.0625 C7.29869141 0.07990234 7.29869141 0.07990234 8.49609375 0.09765625 C6.04867501 4.87012279 6.04867501 4.87012279 3.37109375 5.97265625 C2.75234375 6.01390625 2.13359375 6.05515625 1.49609375 6.09765625 C1.16609375 5.76765625 0.83609375 5.43765625 0.49609375 5.09765625 C-1.55147702 5.38977475 -1.55147702 5.38977475 -3.87890625 5.97265625 C-4.67039062 6.15570313 -5.461875 6.33875 -6.27734375 6.52734375 C-8.03957568 6.97872245 -9.77813579 7.52239943 -11.50390625 8.09765625 C-11.17390625 6.11765625 -10.84390625 4.13765625 -10.50390625 2.09765625 C-9.36953125 1.95328125 -8.23515625 1.80890625 -7.06640625 1.66015625 C-3.7864409 1.14226698 -3.04517779 0.11876668 0 0 Z " fill="#92BEF6" transform="translate(368.50390625,42.90234375)"/>
<path d="M0 0 C0.66 0.33 1.32 0.66 2 1 C1.566875 2.0209375 1.566875 2.0209375 1.125 3.0625 C-0.12597355 6.32893093 -1.07447955 9.62846123 -2 13 C-2.66 12.34 -3.32 11.68 -4 11 C-4.66 14.96 -5.32 18.92 -6 23 C-6.66 23 -7.32 23 -8 23 C-8.48334486 15.69612212 -8.26586423 10.12497397 -4 4 C-1.75 1.5 -1.75 1.5 0 0 Z " fill="#334EA7" transform="translate(197,91)"/>
<path d="M0 0 C-1.14453125 2.015625 -1.14453125 2.015625 -3 4 C-5.69921875 4.171875 -5.69921875 4.171875 -8.6875 3.75 C-9.68136719 3.62109375 -10.67523438 3.4921875 -11.69921875 3.359375 C-12.45847656 3.24078125 -13.21773438 3.1221875 -14 3 C-14 3.66 -14 4.32 -14 5 C-5.42 5 3.16 5 12 5 C12 5.33 12 5.66 12 6 C3.09 6 -5.82 6 -15 6 C-15 4.35 -15 2.7 -15 1 C-9.42567486 -0.66251802 -5.6932495 -1.18609365 0 0 Z " fill="#6A88CC" transform="translate(279,55)"/>
<path d="M0 0 C0.99 0.33 1.98 0.66 3 1 C4.17755913 3.94389782 4.03348696 4.89953913 3 8 C2.77281504 10.56634861 2.58391816 13.11678107 2.4375 15.6875 C2.39431641 16.38939453 2.35113281 17.09128906 2.30664062 17.81445312 C2.2008264 19.54275206 2.09993419 21.2713511 2 23 C1.67 23 1.34 23 1 23 C0.67 24.98 0.34 26.96 0 29 C-0.33 29 -0.66 29 -1 29 C-1.02948491 25.85418698 -1.04695916 22.70841037 -1.0625 19.5625 C-1.07506836 18.24475586 -1.07506836 18.24475586 -1.08789062 16.90039062 C-1.10899107 11.18216923 -0.73280057 5.67199185 0 0 Z " fill="#3168D1" transform="translate(332,20)"/>
<path d="M0 0 C1.98 1.65 3.96 3.3 6 5 C5.34 5.66 4.68 6.32 4 7 C3.60875419 9.6228973 3.60875419 9.6228973 3.5 12.625 C3.16584073 17.66776719 2.39837921 22.15228541 1 27 C0.67 27 0.34 27 0 27 C0 18.09 0 9.18 0 0 Z " fill="#5CA6F4" transform="translate(416,7)"/>
<path d="M0 0 C0.66 0.33 1.32 0.66 2 1 C-1.95979899 10.40703518 -1.95979899 10.40703518 -5 14 C-6.9451 16.91765 -7.45276317 18.62537285 -8 22 C-8.33 22 -8.66 22 -9 22 C-9.75482789 14.52161257 -9.08317805 9.89135176 -4.60546875 3.77734375 C-3 2 -3 2 0 0 Z " fill="#335EBD" transform="translate(384,90)"/>
<path d="M0 0 C0.33 0 0.66 0 1 0 C1.20063183 7.58863174 1.38429884 15.1775154 1.54658794 22.76706123 C1.62248109 26.29158533 1.7041121 29.81577773 1.79907227 33.33984375 C1.90810257 37.39556218 1.99178442 41.45146569 2.07421875 45.5078125 C2.11157639 46.76739777 2.14893402 48.02698303 2.18742371 49.32473755 C2.20767105 50.50550873 2.2279184 51.68627991 2.2487793 52.90283203 C2.27320602 53.93763702 2.29763275 54.97244202 2.32279968 56.03860474 C1.94058977 59.54503517 0.72798016 61.95142985 -1 65 C-1.5625 63.0625 -1.5625 63.0625 -2 61 C-1.505 60.505 -1.505 60.505 -1 60 C-0.87655973 58.12903889 -0.82207606 56.25349072 -0.79467773 54.37866211 C-0.77473251 53.17749252 -0.75478729 51.97632294 -0.73423767 50.73875427 C-0.71752518 49.4314888 -0.70081268 48.12422333 -0.68359375 46.77734375 C-0.66303042 45.43355153 -0.64203412 44.08976588 -0.62062073 42.74598694 C-0.56533581 39.20325013 -0.51595502 35.66045433 -0.46777344 32.11761475 C-0.41760513 28.5047885 -0.36189475 24.89204828 -0.30664062 21.27929688 C-0.19898063 14.18627253 -0.0975532 7.09317112 0 0 Z " fill="#234BB2" transform="translate(335,40)"/>
<path d="M0 0 C0.66 0 1.32 0 2 0 C2 11.55 2 23.1 2 35 C1.34 35 0.68 35 0 35 C0.00523682 34.2793335 0.01047363 33.55866699 0.01586914 32.81616211 C0.03676875 29.52328375 0.04970131 26.23041941 0.0625 22.9375 C0.07087891 21.80376953 0.07925781 20.67003906 0.08789062 19.50195312 C0.13918463 12.66504407 0.13918463 12.66504407 -0.56640625 5.87890625 C-1 3 -1 3 0 0 Z " fill="#1469E1" transform="translate(143,56)"/>
<path d="M0 0 C0.66 0.33 1.32 0.66 2 1 C4.00441446 1.10866356 4.00441446 1.10866356 5.8125 0.375 C8.71010383 -0.12173209 10.38691193 0.76604175 13 2 C12.67 2.66 12.34 3.32 12 4 C10.34550895 4.38929201 8.67453799 4.708776 7 5 C4.66237777 5.65146849 2.32809543 6.31526605 0 7 C0 6.67 0 6.34 0 6 C-2.31 5.67 -4.62 5.34 -7 5 C-6.67 3.68 -6.34 2.36 -6 1 C-4.7934375 1.0309375 -4.7934375 1.0309375 -3.5625 1.0625 C-1.06645115 1.29633621 -1.06645115 1.29633621 0 0 Z " fill="#8FBEF6" transform="translate(272,43)"/>
<path d="M0 0 C0.66 0.33 1.32 0.66 2 1 C1.37619308 2.41719242 0.7508997 3.8337306 0.125 5.25 C-0.22304688 6.03890625 -0.57109375 6.8278125 -0.9296875 7.640625 C-1.90413905 9.78868608 -2.92986429 11.89829202 -4 14 C-4.33 14 -4.66 14 -5 14 C-5.66 16.31 -6.32 18.62 -7 21 C-7.33 21 -7.66 21 -8 21 C-8.68704126 13.54941922 -7.78605899 8.83764379 -3 3 C-2.01625698 1.98400311 -1.02073393 0.97882697 0 0 Z " fill="#264CB9" transform="translate(290,91)"/>
<path d="M0 0 C1.134375 0.020625 2.26875 0.04125 3.4375 0.0625 C3.4375 1.3825 3.4375 2.7025 3.4375 4.0625 C0.7975 4.3925 -1.8425 4.7225 -4.5625 5.0625 C-4.5625 6.3825 -4.5625 7.7025 -4.5625 9.0625 C4.3475 9.0625 13.2575 9.0625 22.4375 9.0625 C22.4375 9.3925 22.4375 9.7225 22.4375 10.0625 C13.1975 10.0625 3.9575 10.0625 -5.5625 10.0625 C-4.453125 0.078125 -4.453125 0.078125 0 0 Z " fill="#7A96D1" transform="translate(176.5625,50.9375)"/>
<path d="M0 0 C0.66 0.66 1.32 1.32 2 2 C0.02 3.32 -1.96 4.64 -4 6 C-2.84826645 3.53199953 -1.95216435 1.95216435 0 0 Z M-6.6875 4.3125 C-6.130625 4.539375 -5.57375 4.76625 -5 5 C-4.67 6.32 -4.34 7.64 -4 9 C-8.32734391 11.22923777 -11.28400182 10.92470553 -16 10 C-13.63857153 6.4578573 -11.21132785 3.70117191 -6.6875 4.3125 Z " fill="#72A2EB" transform="translate(195,44)"/>
<path d="M0 0 C0.66 0 1.32 0 2 0 C2.66 1.65 3.32 3.3 4 5 C3.67 5 3.34 5 3 5 C2.87882812 5.80824219 2.75765625 6.61648437 2.6328125 7.44921875 C2.38144531 9.05216797 2.38144531 9.05216797 2.125 10.6875 C1.88136719 12.27111328 1.88136719 12.27111328 1.6328125 13.88671875 C1.04106931 16.79794914 0.1968194 19.28955607 -1 22 C-1.33 22 -1.66 22 -2 22 C-2.2137731 14.31604457 -2.01670288 7.43659188 0 0 Z " fill="#407BDE" transform="translate(330,16)"/>
<path d="M0 0 C1.16781006 0.00523682 2.33562012 0.01047363 3.53881836 0.01586914 C4.79887695 0.0190918 6.05893555 0.02231445 7.35717773 0.02563477 C8.6976732 0.03399136 10.03816799 0.04245632 11.37866211 0.05102539 C12.72306153 0.05603879 14.06746271 0.06060197 15.41186523 0.06469727 C18.71334151 0.07653051 22.01473014 0.09301568 25.31616211 0.11352539 C25.64616211 0.77352539 25.97616211 1.43352539 26.31616211 2.11352539 C22.36566681 2.30576915 18.41481627 2.4844922 14.46313477 2.65063477 C13.11856645 2.70908014 11.77415413 2.77123615 10.42993164 2.8371582 C8.49922874 2.93119982 6.56784181 3.01085231 4.63647461 3.09008789 C3.47390137 3.14245605 2.31132813 3.19482422 1.11352539 3.2487793 C-1.68383789 3.11352539 -1.68383789 3.11352539 -3.68383789 1.11352539 C-2.68383789 0.11352539 -2.68383789 0.11352539 0 0 Z " fill="#1F3EA6" transform="translate(112.683837890625,113.886474609375)"/>
<path d="M0 0 C1.53944461 5.21909271 1.56554184 10.61633544 1 16 C-1 19.25 -1 19.25 -3 21 C-4.14382037 13.62718194 -4.21540076 7.84466499 -1 1 C-0.67 0.67 -0.34 0.34 0 0 Z " fill="#1E6EE0" transform="translate(238,49)"/>
<path d="M0 0 C0.99 0.33 1.98 0.66 3 1 C3.6875 3.0625 3.6875 3.0625 4 5 C3.01 4.67 2.02 4.34 1 4 C1.01047363 4.77601562 1.02094727 5.55203125 1.03173828 6.3515625 C1.07356498 9.90100812 1.09941072 13.45040167 1.125 17 C1.14175781 18.22074219 1.15851563 19.44148438 1.17578125 20.69921875 C1.21075729 27.16978669 0.96263764 32.81846413 -1 39 C-1.33 39 -1.66 39 -2 39 C-2.0270043 37.54176788 -2.04639787 36.08339325 -2.0625 34.625 C-2.07410156 33.81289063 -2.08570313 33.00078125 -2.09765625 32.1640625 C-2 30 -2 30 -1 28 C-0.84558791 25.89625004 -0.75007361 23.78804881 -0.68359375 21.6796875 C-0.64169922 20.42285156 -0.59980469 19.16601562 -0.55664062 17.87109375 C-0.51732422 16.55238281 -0.47800781 15.23367187 -0.4375 13.875 C-0.39430488 12.53514249 -0.35069027 11.19529844 -0.30664062 9.85546875 C-0.20029019 6.57042185 -0.09826192 3.28529719 0 0 Z " fill="#2C71DD" transform="translate(423,17)"/>
<path d="M0 0 C0.66 0.66 1.32 1.32 2 2 C-0.4957321 4.4957321 -2.64995445 4.94900532 -6 6 C-6.78375 6.37125 -7.5675 6.7425 -8.375 7.125 C-12.02343543 8.34114514 -15.1628306 8.13007354 -19 8 C-19 6.68 -19 5.36 -19 4 C-17.80503906 3.92652344 -17.80503906 3.92652344 -16.5859375 3.8515625 C-7.67390787 3.71958051 -7.67390787 3.71958051 0 0 Z " fill="#8AB5F2" transform="translate(191,44)"/>
<path d="M0 0 C1.32 0.33 2.64 0.66 4 1 C4.33 2.32 4.66 3.64 5 5 C4.01 4.67 3.02 4.34 2 4 C2 10.27 2 16.54 2 23 C1.34 23.33 0.68 23.66 0 24 C0 16.08 0 8.16 0 0 Z " fill="#3164CC" transform="translate(239,21)"/>
<path d="M0 0 C0.66 0 1.32 0 2 0 C2 2.64 2 5.28 2 8 C1.34 8 0.68 8 0 8 C-0.33 9.98 -0.66 11.96 -1 14 C-1.99 14.33 -2.98 14.66 -4 15 C-4.68829114 6.39636076 -4.68829114 6.39636076 -2.125 2.4375 C-1.073125 1.2309375 -1.073125 1.2309375 0 0 Z " fill="#2845AA" transform="translate(101,95)"/>
<path d="M0 0 C1.03159626 3.09478879 0.97482862 4.52631393 0.5625 7.6875 C0.46066406 8.49574219 0.35882813 9.30398437 0.25390625 10.13671875 C0.17011719 10.75160156 0.08632813 11.36648437 0 12 C-0.33 12 -0.66 12 -1 12 C-1.33 9.36 -1.66 6.72 -2 4 C-2.70125 4.433125 -3.4025 4.86625 -4.125 5.3125 C-7.03987824 7.02340679 -9.91025058 8.62677804 -13 10 C-13.66 9.67 -14.32 9.34 -15 9 C-13.58680023 7.87064804 -12.16928595 6.74669374 -10.75 5.625 C-9.96109375 4.99851562 -9.1721875 4.37203125 -8.359375 3.7265625 C-3.26696833 0 -3.26696833 0 0 0 Z " fill="#5F92E6" transform="translate(292,48)"/>
<path d="M0 0 C0.33 1.32 0.66 2.64 1 4 C-7.58 4 -16.16 4 -25 4 C-24.67 3.01 -24.34 2.02 -24 1 C-23.33613281 1.08378906 -22.67226562 1.16757812 -21.98828125 1.25390625 C-15.45279152 2.05425042 -15.45279152 2.05425042 -9 1 C-9 1.66 -9 2.32 -9 3 C-6.03 2.01 -3.06 1.02 0 0 Z " fill="#5479D2" transform="translate(197,56)"/>
<path d="M0 0 C0.33 1.32 0.66 2.64 1 4 C-7.58 4 -16.16 4 -25 4 C-24.67 3.34 -24.34 2.68 -24 2 C-23.00419922 2.01740234 -23.00419922 2.01740234 -21.98828125 2.03515625 C-15.43693213 2.11893409 -15.43693213 2.11893409 -9 1 C-9 1.66 -9 2.32 -9 3 C-6.03 2.01 -3.06 1.02 0 0 Z " fill="#5479D2" transform="translate(382,56)"/>
<path d="M0 0 C-0.8046875 1.953125 -0.8046875 1.953125 -2 4 C-6.97512324 5.19402958 -11.91450754 5.08921917 -17 5 C-16.67 4.01 -16.34 3.02 -16 2 C-10.63636982 -0.12310361 -5.71642118 -0.23332331 0 0 Z " fill="#5F87DB" transform="translate(374,54)"/>
<path d="M0 0 C-0.8046875 1.953125 -0.8046875 1.953125 -2 4 C-6.97512324 5.19402958 -11.91450754 5.08921917 -17 5 C-16.67 4.01 -16.34 3.02 -16 2 C-10.63636982 -0.12310361 -5.71642118 -0.23332331 0 0 Z " fill="#5F87DB" transform="translate(96,54)"/>
<path d="M0 0 C0.33 0 0.66 0 1 0 C1.0544452 2.20805524 1.09299283 4.41650554 1.125 6.625 C1.14820313 7.85476562 1.17140625 9.08453125 1.1953125 10.3515625 C1.0030428 13.94316041 0.30258556 16.66661175 -1 20 C-1.66 19.67 -2.32 19.34 -3 19 C-3.38614349 12.1781317 -2.00865708 6.50422293 0 0 Z " fill="#2F84ED" transform="translate(235,36)"/>
<path d="M0 0 C0.33 0 0.66 0 1 0 C1.08681476 3.62484999 1.14032721 7.24943443 1.1875 10.875 C1.22520508 12.42380859 1.22520508 12.42380859 1.26367188 14.00390625 C1.27333984 14.99003906 1.28300781 15.97617187 1.29296875 16.9921875 C1.3086792 17.90339355 1.32438965 18.81459961 1.34057617 19.75341797 C1.22818604 20.49479004 1.1157959 21.23616211 1 22 C0.01 22.66 -0.98 23.32 -2 24 C-3.16045439 19.74500059 -2.82904781 16.31104861 -2 12 C-1.67 11.67 -1.34 11.34 -1 11 C-0.76636119 9.15108054 -0.58696365 7.29511969 -0.4375 5.4375 C-0.35371094 4.42558594 -0.26992188 3.41367187 -0.18359375 2.37109375 C-0.12300781 1.58863281 -0.06242187 0.80617188 0 0 Z " fill="#4293F2" transform="translate(419,26)"/>
<path d="M0 0 C1 3 1 3 0.0625 5.1875 C-0.288125 5.785625 -0.63875 6.38375 -1 7 C-1 6.34 -1 5.68 -1 5 C-3.97 6.32 -6.94 7.64 -10 9 C-7.16 3.32 -7.16 3.32 -5 1 C-2.3125 0.25 -2.3125 0.25 0 0 Z " fill="#75AEF4" transform="translate(293,43)"/>
<path d="M0 0 C0.99 0 1.98 0 3 0 C3.98351763 3.08907651 3.96409099 5.01001837 3.125 8.125 C1.91110449 13.05439999 1.40086588 17.94698007 1 23 C0.67 23 0.34 23 0 23 C0 15.41 0 7.82 0 0 Z " fill="#3162CA" transform="translate(147,22)"/>
<path d="M0 0 C0.99 0.33 1.98 0.66 3 1 C2.91266027 3.08410658 2.80447722 5.16734669 2.6875 7.25 C2.62949219 8.41015625 2.57148438 9.5703125 2.51171875 10.765625 C1.98288197 14.10819638 1.26227667 15.5497057 -1 18 C-1.02717692 15.93757383 -1.0464758 13.87504297 -1.0625 11.8125 C-1.07410156 10.66394531 -1.08570313 9.51539063 -1.09765625 8.33203125 C-1.01192832 5.40699414 -0.67849023 2.83683709 0 0 Z " fill="#4583E3" transform="translate(421,14)"/>
<path d="M0 0 C1.32 0.33 2.64 0.66 4 1 C3.01 1.495 3.01 1.495 2 2 C1.60446911 4.81053421 1.60446911 4.81053421 1.5 8.125 C1.20016789 13.08040708 0.63106389 17.32428351 -1 22 C-2.1017581 18.56317248 -1.96156827 15.69990078 -1.625 12.125 C-1.52574219 11.07054687 -1.42648438 10.01609375 -1.32421875 8.9296875 C-0.99211601 5.92875916 -0.57639067 2.9642949 0 0 Z " fill="#4584E4" transform="translate(236,16)"/>
<path d="M0 0 C0.66 0.33 1.32 0.66 2 1 C1.34 4.96 0.68 8.92 0 13 C-0.33 13 -0.66 13 -1 13 C-1.02686553 11.02090602 -1.04633375 9.04171029 -1.0625 7.0625 C-1.07410156 5.96035156 -1.08570313 4.85820312 -1.09765625 3.72265625 C-1 1 -1 1 0 0 Z M-2 13 C-1.67 13 -1.34 13 -1 13 C-0.91885894 14.77007714 -0.86074495 16.54122098 -0.8125 18.3125 C-0.76029297 19.79169922 -0.76029297 19.79169922 -0.70703125 21.30078125 C-1 24 -1 24 -2.51171875 25.85546875 C-3.00285156 26.23316406 -3.49398438 26.61085938 -4 27 C-3.85866501 25.22880197 -3.71176792 23.45804713 -3.5625 21.6875 C-3.48128906 20.70136719 -3.40007812 19.71523438 -3.31640625 18.69921875 C-3 16 -3 16 -2 13 Z " fill="#4F98F1" transform="translate(420,13)"/>
<path d="M0 0 C0.66 0.66 1.32 1.32 2 2 C-0.97 4.31 -3.94 6.62 -7 9 C-7.99 8.34 -8.98 7.68 -10 7 C-9 4 -9 4 -6.93359375 2.83203125 C-6.10988281 2.49558594 -5.28617187 2.15914062 -4.4375 1.8125 C-3.61121094 1.46832031 -2.78492187 1.12414063 -1.93359375 0.76953125 C-1.29550781 0.51558594 -0.65742187 0.26164062 0 0 Z " fill="#77A7ED" transform="translate(102,44)"/>
<path d="M0 0 C0.99 0 1.98 0 3 0 C4.0625 1.8125 4.0625 1.8125 5 4 C4.67 4.99 4.34 5.98 4 7 C3.01 6.67 2.02 6.34 1 6 C1 11.94 1 17.88 1 24 C0.67 24 0.34 24 0 24 C0 16.08 0 8.16 0 0 Z " fill="#2B58BF" transform="translate(426,24)"/>
<path d="M0 0 C0.66 0 1.32 0 2 0 C2.33 0.99 2.66 1.98 3 3 C0.36 3.99 -2.28 4.98 -5 6 C-5 5.34 -5 4.68 -5 4 C-7.31 4.33 -9.62 4.66 -12 5 C-10.59455569 2.9796738 -9.47923008 2.09526863 -7.0546875 1.61328125 C-5.03814521 1.39283487 -3.01912323 1.19539902 -1 1 C-0.67 0.67 -0.34 0.34 0 0 Z " fill="#6494E5" transform="translate(379,50)"/>
<path d="M0 0 C0.66 0 1.32 0 2 0 C2.33 0.99 2.66 1.98 3 3 C0.36 3.99 -2.28 4.98 -5 6 C-5 5.34 -5 4.68 -5 4 C-7.31 4.33 -9.62 4.66 -12 5 C-10.59455569 2.9796738 -9.47923008 2.09526863 -7.0546875 1.61328125 C-5.03814521 1.39283487 -3.01912323 1.19539902 -1 1 C-0.67 0.67 -0.34 0.34 0 0 Z " fill="#6494E5" transform="translate(101,50)"/>
<path d="M0 0 C3.96 0 7.92 0 12 0 C12 0.99 12 1.98 12 3 C9.50935112 3.68707555 7.62113708 4 5 4 C3.32900023 4.31088368 1.66128463 4.64080332 0 5 C0 3.35 0 1.7 0 0 Z " fill="#87B0EC" transform="translate(79,48)"/>
<path d="M0 0 C0.6875 1.8125 0.6875 1.8125 1 4 C0.0625 5.6875 0.0625 5.6875 -2 7 C-4.68028532 7.54871983 -7.26229906 7.77559828 -10 8 C-9 5 -9 5 -7.1875 3.8671875 C-6.465625 3.53976563 -5.74375 3.21234375 -5 2.875 C-2.29696822 1.7328129 -2.29696822 1.7328129 0 0 Z " fill="#5484DC" transform="translate(290,51)"/>
<path d="M0 0 C0.33 1.32 0.66 2.64 1 4 C-2.42346555 7.14958831 -5.44262737 7.56179109 -10 8 C-9.4375 6.1875 -9.4375 6.1875 -8 4 C-4.4375 2.3125 -4.4375 2.3125 -1 1 C-0.67 0.67 -0.34 0.34 0 0 Z " fill="#5484DD" transform="translate(105,51)"/>
<path d="M0 0 C1.43088528 2.86177057 0.59991697 4.93375773 0 8 C-0.99 8 -1.98 8 -3 8 C-4.67099977 8.31088368 -6.33871537 8.64080332 -8 9 C-6.64531705 4.12314139 -4.28324091 2.51407619 0 0 Z " fill="#689FED" transform="translate(200,45)"/>
<path d="M0 0 C1.32 0.66 2.64 1.32 4 2 C3.67 2.66 3.34 3.32 3 4 C2.34 3.67 1.68 3.34 1 3 C1.03480469 3.81984375 1.06960937 4.6396875 1.10546875 5.484375 C1.14607422 7.10085937 1.14607422 7.10085937 1.1875 8.75 C1.22230469 9.81734375 1.25710937 10.8846875 1.29296875 11.984375 C0.97082786 15.30027855 0.22851086 16.59016673 -2 19 C-1.85820962 16.77057252 -1.71140302 14.54146372 -1.5625 12.3125 C-1.48128906 11.07113281 -1.40007812 9.82976563 -1.31640625 8.55078125 C-1.05508683 5.61819663 -0.65201621 2.86558383 0 0 Z " fill="#3C76DB" transform="translate(238,18)"/>
<path d="M0 0 C0.33 0 0.66 0 1 0 C0.67 5.61 0.34 11.22 0 17 C-0.66 17 -1.32 17 -2 17 C-3.18594057 12.76674194 -2.71869389 9.89604576 -1.5625 5.6875 C-1.27503906 4.61886719 -0.98757812 3.55023438 -0.69140625 2.44921875 C-0.46324219 1.64097656 -0.23507813 0.83273438 0 0 Z " fill="#2B79E6" transform="translate(144,39)"/>
<path d="M0 0 C0.33 0 0.66 0 1 0 C1 3.63 1 7.26 1 11 C0.01 11 -0.98 11 -2 11 C-2.93750716 7.33519927 -3.28668844 5.59943946 -1.625 2.125 C-1.08875 1.42375 -0.5525 0.7225 0 0 Z " fill="#388BF0" transform="translate(327,36)"/>
<path d="M0 0 C0.66 0.33 1.32 0.66 2 1 C1.71125 1.680625 1.4225 2.36125 1.125 3.0625 C-0.12597355 6.32893093 -1.07447955 9.62846123 -2 13 C-3.20628008 10.66785852 -4.1654738 8.50357861 -5 6 C-3.59554165 3.7363436 -1.8032087 1.9791315 0 0 Z " fill="#315FC4" transform="translate(197,91)"/>
<path d="M0 0 C0.33 0.66 0.66 1.32 1 2 C0.67 2.66 0.34 3.32 0 4 C-2.48412207 4.82804069 -4.35220307 5 -7 5 C-8.67099977 5.31088368 -10.33871537 5.64080332 -12 6 C-11 3 -11 3 -8.8125 1.875 C-5.88327726 0.96368626 -3.03558382 0.42356983 0 0 Z " fill="#85AEEE" transform="translate(369,47)"/>
<path d="M0 0 C1.98 0.99 1.98 0.99 4 2 C3.71890887 3.64767247 3.42481474 5.29313145 3.125 6.9375 C2.96257812 7.85402344 2.80015625 8.77054688 2.6328125 9.71484375 C2.42398438 10.46894531 2.21515625 11.22304688 2 12 C1.01 12.495 1.01 12.495 0 13 C0 8.71 0 4.42 0 0 Z " fill="#64B0F6" transform="translate(231,8)"/>
<path d="M0 0 C1.485 0.99 1.485 0.99 3 2 C3.58858045 6.94407574 2.30417863 11.27235245 1 16 C0.67 16 0.34 16 0 16 C0 10.72 0 5.44 0 0 Z " fill="#6DB0F7" transform="translate(138,7)"/>
<path d="M0 0 C1.485 0.99 1.485 0.99 3 2 C2.88623383 4.12563103 2.75864369 6.2505261 2.625 8.375 C2.52058594 10.15003906 2.52058594 10.15003906 2.4140625 11.9609375 C2 15 2 15 0 17 C0 11.39 0 5.78 0 0 Z " fill="#6DB0F8" transform="translate(323,7)"/>
<path d="M0 0 C1.17658961 3.52976882 0.79790695 5.48012397 0.1875 9.125 C0.01605469 10.20007813 -0.15539062 11.27515625 -0.33203125 12.3828125 C-0.55246094 13.24648437 -0.77289063 14.11015625 -1 15 C-1.99 15.495 -1.99 15.495 -3 16 C-3.32712342 9.86946489 -3.39366878 5.37330889 0 0 Z " fill="#2C48A5" transform="translate(285,96)"/>
<path d="M0 0 C0.66 0.66 1.32 1.32 2 2 C1.79296875 3.77734375 1.79296875 3.77734375 1.1875 5.9375 C-0.15516405 11.25618211 -0.61214072 16.53934962 -1 22 C-3.9052233 17.9715677 -2.83062823 13.92992966 -2.1875 9.3125 C-2.09146484 8.52810547 -1.99542969 7.74371094 -1.89648438 6.93554688 C-1.15162295 1.15162295 -1.15162295 1.15162295 0 0 Z " fill="#4A8BE8" transform="translate(329,14)"/>
<path d="M0 0 C1.231394 3.69418201 0.64432764 6.2056261 0 10 C-0.66 8.68 -1.32 7.36 -2 6 C-2.66 6 -3.32 6 -4 6 C-4 5.34 -4 4.68 -4 4 C-4.66 3.67 -5.32 3.34 -6 3 C-3.8614515 0.8614515 -2.86724686 0.57344937 0 0 Z " fill="#69A2EE" transform="translate(107,46)"/>
<path d="M0 0 C0.99 0.33 1.98 0.66 3 1 C-0.78756477 4.61139896 -0.78756477 4.61139896 -3 6 C-5.875 5.8125 -5.875 5.8125 -8 5 C-8 4.01 -8 3.02 -8 2 C-6 2 -4 2 -2 2 C-1.34 1.34 -0.68 0.68 0 0 Z " fill="#9EC5F6" transform="translate(88,43)"/>
<path d="M0 0 C1.15941038 3.47823115 0.70820884 5.45895578 0 9 C-0.66 8.01 -1.32 7.02 -2 6 C-2.66 6 -3.32 6 -4 6 C-4 5.34 -4 4.68 -4 4 C-4.66 3.67 -5.32 3.34 -6 3 C-3.8614515 0.8614515 -2.86724686 0.57344937 0 0 Z " fill="#69A2EF" transform="translate(385,46)"/>
<path d="M0 0 C0.66 0.33 1.32 0.66 2 1 C1 4 1 4 -1 5 C-2.99960012 5.039992 -5.00047242 5.04346799 -7 5 C-6.67 3.68 -6.34 2.36 -6 1 C-4.7934375 1.0309375 -4.7934375 1.0309375 -3.5625 1.0625 C-1.06645115 1.29633621 -1.06645115 1.29633621 0 0 Z " fill="#A0C7F7" transform="translate(272,43)"/>
<path d="M0 0 C0.99 0.33 1.98 0.66 3 1 C2.84660156 1.66386719 2.69320313 2.32773437 2.53515625 3.01171875 C1.89226979 6.60155922 1.64966009 10.17795419 1.4375 13.8125 C1.39431641 14.50537109 1.35113281 15.19824219 1.30664062 15.91210938 C1.20138547 17.60788686 1.10027137 19.30392052 1 21 C0.67 21 0.34 21 0 21 C0 14.07 0 7.14 0 0 Z " fill="#2F5DC5" transform="translate(333,22)"/>
<path d="M0 0 C0.66 0.66 1.32 1.32 2 2 C1.67 2.99 1.34 3.98 1 5 C-2.96 5 -6.92 5 -11 5 C-11 4.67 -11 4.34 -11 4 C-10.28972656 3.79503906 -9.57945313 3.59007812 -8.84765625 3.37890625 C-7.92855469 3.10949219 -7.00945312 2.84007812 -6.0625 2.5625 C-4.68771484 2.16224609 -4.68771484 2.16224609 -3.28515625 1.75390625 C-1.0597507 1.20973949 -1.0597507 1.20973949 0 0 Z " fill="#4676D1" transform="translate(105,55)"/>
<path d="M0 0 C0.99 0.33 1.98 0.66 3 1 C2.71872579 2.48117801 2.42466268 3.95993249 2.125 5.4375 C1.96257812 6.26121094 1.80015625 7.08492187 1.6328125 7.93359375 C1.42398438 8.61550781 1.21515625 9.29742187 1 10 C0.01 10.495 0.01 10.495 -1 11 C-1.125 3.375 -1.125 3.375 0 0 Z " fill="#3B92F3" transform="translate(232,37)"/>
<path d="M0 0 C1.32 1.32 2.64 2.64 4 4 C2.64627792 6.70744416 1.14049846 8.85950154 -1 11 C-1.02688151 9.35425434 -1.04634123 7.70838587 -1.0625 6.0625 C-1.07410156 5.14597656 -1.08570313 4.22945312 -1.09765625 3.28515625 C-1 1 -1 1 0 0 Z " fill="#4C8FE8" transform="translate(143,12)"/>
<path d="M0 0 C0.53625 0.268125 1.0725 0.53625 1.625 0.8125 C1.026875 0.9775 0.42875 1.1425 -0.1875 1.3125 C-3.56027798 3.62526204 -4.2081548 7.01141337 -5.375 10.8125 C-5.705 10.8125 -6.035 10.8125 -6.375 10.8125 C-6.375 9.1625 -6.375 7.5125 -6.375 5.8125 C-7.035 5.4825 -7.695 5.1525 -8.375 4.8125 C-2.95961538 -0.23365385 -2.95961538 -0.23365385 0 0 Z " fill="#3E75D1" transform="translate(109.375,89.1875)"/>
<path d="M0 0 C2.64 0 5.28 0 8 0 C5.42595029 3.86107457 3.38979741 3.94319692 -1 5 C-0.67 3.35 -0.34 1.7 0 0 Z " fill="#8CB1EE" transform="translate(265,48)"/>
<path d="M0 0 C0.33 0 0.66 0 1 0 C1.054348 2.0622048 1.09294961 4.12482816 1.125 6.1875 C1.14820313 7.33605469 1.17140625 8.48460937 1.1953125 9.66796875 C1.00484152 12.91740372 0.39360127 15.08660521 -1 18 C-2.12356786 14.62929642 -1.94408459 12.51855445 -1.625 9 C-1.48964844 7.4221875 -1.48964844 7.4221875 -1.3515625 5.8125 C-1 3 -1 3 0 0 Z " fill="#3982E8" transform="translate(421,29)"/>
<path d="M0 0 C0.99 0.33 1.98 0.66 3 1 C3.6875 3.0625 3.6875 3.0625 4 5 C3.01 4.67 2.02 4.34 1 4 C1 8.29 1 12.58 1 17 C0.67 17 0.34 17 0 17 C0 11.39 0 5.78 0 0 Z " fill="#3E75D8" transform="translate(423,17)"/>
<path d="M0 0 C0.99 0.33 1.98 0.66 3 1 C1 4 1 4 -1.6015625 4.73046875 C-3.09816406 4.95669922 -3.09816406 4.95669922 -4.625 5.1875 C-5.62789062 5.34605469 -6.63078125 5.50460938 -7.6640625 5.66796875 C-8.82035156 5.83232422 -8.82035156 5.83232422 -10 6 C-8.6993321 3.3986642 -7.69919978 3.35811992 -5 2.4375 C-2.26066983 1.60962158 -2.26066983 1.60962158 0 0 Z " fill="#93BFF6" transform="translate(186,43)"/>
<path d="M0 0 C0.99 0.33 1.98 0.66 3 1 C-3.5 5 -3.5 5 -8 5 C-8 4.01 -8 3.02 -8 2 C-6.865625 1.855625 -5.73125 1.71125 -4.5625 1.5625 C-1.19222799 1.38828522 -1.19222799 1.38828522 0 0 Z " fill="#A0C8F7" transform="translate(366,43)"/>
<path d="M0 0 C0.66 0.33 1.32 0.66 2 1 C1.67 3.31 1.34 5.62 1 8 C0.01 8 -0.98 8 -2 8 C-1.34 5.36 -0.68 2.72 0 0 Z " fill="#3489EF" transform="translate(141,40)"/>
<path d="M0 0 C0.33 1.32 0.66 2.64 1 4 C-2.63 4 -6.26 4 -10 4 C-6.66189518 2.33094759 -3.53842155 1.1258614 0 0 Z " fill="#4874D2" transform="translate(197,56)"/>
<path d="M0 0 C0.598125 0.20625 1.19625 0.4125 1.8125 0.625 C-0.59186026 4.23154039 -2.13429607 4.47952932 -6.1875 5.625 C-5.875 3.75 -5.875 3.75 -5.1875 1.625 C-2.1875 -0.375 -2.1875 -0.375 0 0 Z " fill="#7FB4F5" transform="translate(380.1875,44.375)"/>
<path d="M0 0 C0.66 0 1.32 0 2 0 C2 2.64 2 5.28 2 8 C1.01 7.01 0.02 6.02 -1 5 C-1.99 5.495 -1.99 5.495 -3 6 C-1.125 1.125 -1.125 1.125 0 0 Z " fill="#2F57BC" transform="translate(101,95)"/>
<path d="M0 0 C0.33 1.32 0.66 2.64 1 4 C-2.63 4 -6.26 4 -10 4 C-10 3.67 -10 3.34 -10 3 C-5.05 1.515 -5.05 1.515 0 0 Z " fill="#4874D2" transform="translate(382,56)"/>
<path d="M0 0 C2.97 0.495 2.97 0.495 6 1 C4.68 2.32 3.36 3.64 2 5 C1.01 4.34 0.02 3.68 -1 3 C-0.67 2.01 -0.34 1.02 0 0 Z " fill="#77A7ED" transform="translate(371,48)"/>
<path d="M0 0 C0.66 0.66 1.32 1.32 2 2 C-0.67478244 3.6627026 -2.9995144 4.99983813 -6 6 C-5.8125 4.125 -5.8125 4.125 -5 2 C-2.4375 0.75 -2.4375 0.75 0 0 Z " fill="#7EB4F5" transform="translate(102,44)"/>
<path d="M0 0 C0.66 0 1.32 0 2 0 C1.67 3.3 1.34 6.6 1 10 C-1.17766075 5.64467851 -1.03039555 4.53374042 0 0 Z " fill="#1D70E3" transform="translate(143,56)"/>
<path d="M0 0 C0.33 0 0.66 0 1 0 C1.08096803 1.45742463 1.13917774 2.91612807 1.1875 4.375 C1.22230469 5.18710937 1.25710938 5.99921875 1.29296875 6.8359375 C1.19628906 7.55007812 1.09960938 8.26421875 1 9 C0.01 9.66 -0.98 10.32 -2 11 C-3 9 -3 9 -2.44140625 6.8359375 C-2.15136719 6.02382813 -1.86132812 5.21171875 -1.5625 4.375 C-1.27503906 3.55773438 -0.98757813 2.74046875 -0.69140625 1.8984375 C-0.46324219 1.27195313 -0.23507812 0.64546875 0 0 Z " fill="#358DF2" transform="translate(419,39)"/>
<path d="M0 0 C0.66 0.66 1.32 1.32 2 2 C1.54545455 7.45454545 1.54545455 7.45454545 -1 10 C-1.125 2.25 -1.125 2.25 0 0 Z " fill="#4797F3" transform="translate(325,30)"/>
<path d="M0 0 C0.33 0.99 0.66 1.98 1 3 C-0.134375 3.12375 -1.26875 3.2475 -2.4375 3.375 C-4.2009375 3.684375 -4.2009375 3.684375 -6 4 C-6.33 4.66 -6.66 5.32 -7 6 C-6.875 4.125 -6.875 4.125 -6 2 C-2.9375 0.75 -2.9375 0.75 0 0 Z " fill="#7CA2E7" transform="translate(271,50)"/>
<path d="M0 0 C0.99 0.99 1.98 1.98 3 3 C2.85546875 5.26171875 2.85546875 5.26171875 2.1875 7.6875 C1.86845703 8.89986328 1.86845703 8.89986328 1.54296875 10.13671875 C1.27419922 11.05904297 1.27419922 11.05904297 1 12 C0.67 12 0.34 12 0 12 C0 8.04 0 4.08 0 0 Z " fill="#71B2F8" transform="translate(416,7)"/>
<path d="M0 0 C0.33 0 0.66 0 1 0 C1.21278058 4.46839215 0.59138085 7.82262526 -1 12 C-1.33 12 -1.66 12 -2 12 C-2.28571429 3.42857143 -2.28571429 3.42857143 0 0 Z " fill="#233EA6" transform="translate(377,100)"/>
<path d="M0 0 C0.99 0.33 1.98 0.66 3 1 C3 1.66 3 2.32 3 3 C2.34 3 1.68 3 1 3 C0.67 5.97 0.34 8.94 0 12 C-0.33 12 -0.66 12 -1 12 C-1.08159574 7.83861737 -0.98248524 4.0527516 0 0 Z " fill="#4E8BE6" transform="translate(421,14)"/>
<path d="M0 0 C0.66 0.33 1.32 0.66 2 1 C1.01 2.98 0.02 4.96 -1 7 C-1.33 6.34 -1.66 5.68 -2 5 C-2.66 4.67 -3.32 4.34 -4 4 C-2.68 2.68 -1.36 1.36 0 0 Z " fill="#2E64CC" transform="translate(290,91)"/>
<path d="M0 0 C0 0.99 0 1.98 0 3 C-2.31 3.66 -4.62 4.32 -7 5 C-6.67 4.01 -6.34 3.02 -6 2 C-2.9375 0.8125 -2.9375 0.8125 0 0 Z " fill="#7BA1E7" transform="translate(86,50)"/>
<path d="M0 0 C0 0.99 0 1.98 0 3 C-1.8125 3.625 -1.8125 3.625 -4 4 C-4.99 3.34 -5.98 2.68 -7 2 C-4.35261084 0.5393715 -3.10551666 0 0 0 Z " fill="#82ADEE" transform="translate(184,48)"/>
<path d="M0 0 C0.99 0 1.98 0 3 0 C2.34 3.63 1.68 7.26 1 11 C0.67 11 0.34 11 0 11 C0 7.37 0 3.74 0 0 Z " fill="#2F5BC1" transform="translate(148,24)"/>
<path d="M0 0 C1.125 1.5625 1.125 1.5625 2 4 C1.125 7.75 1.125 7.75 0 11 C-1.37432457 7.18243176 -0.67975039 3.92744671 0 0 Z " fill="#4B9DF5" transform="translate(232,28)"/>
</svg>
